<mxfile host="app.diagrams.net" modified="2024-05-24T11:47:22.709Z" agent="Mozilla/5.0 (Windows NT 10.0; Win64; x64) AppleWebKit/537.36 (KHTML, like Gecko) Chrome/121.0.0.0 Safari/537.36" etag="MT1qNuhUnKCLUR5BL03j" version="24.4.7" type="device">
  <diagram name="PÃ¡gina-1" id="vXdWnNGWJgkuCu7NKlv7">
    <mxGraphModel dx="1434" dy="782" grid="1" gridSize="10" guides="1" tooltips="1" connect="1" arrows="1" fold="1" page="1" pageScale="1" pageWidth="827" pageHeight="1169" math="0" shadow="0">
      <root>
        <mxCell id="0" />
        <mxCell id="1" parent="0" />
        <mxCell id="WBKjV2jkg9K49L9n9aMM-4" value="" style="shape=image;html=1;verticalLabelPosition=bottom;verticalAlign=top;imageAspect=1;aspect=fixed;image=data:image/jpeg,/9j/4AAQSkZJRgABAQAAAQABAAD//gA7Q1JFQVRPUjogZ2QtanBlZyB2MS4wICh1c2luZyBJSkcgSlBFRyB2NjIpLCBxdWFsaXR5ID0gODIK/9sAQwAGBAQFBAQGBQUFBgYGBwkOCQkICAkSDQ0KDhUSFhYVEhQUFxohHBcYHxkUFB0nHR8iIyUlJRYcKSwoJCshJCUk/9sAQwEGBgYJCAkRCQkRJBgUGCQkJCQkJCQkJCQkJCQkJCQkJCQkJCQkJCQkJCQkJCQkJCQkJCQkJCQkJCQkJCQkJCQk/8AAEQgBkAJYAwEiAAIRAQMRAf/EAB8AAAEFAQEBAQEBAAAAAAAAAAABAgMEBQYHCAkKC//EALUQAAIBAwMCBAMFBQQEAAABfQECAwAEEQUSITFBBhNRYQcicRQygZGhCCNCscEVUtHwJDNicoIJChYXGBkaJSYnKCkqNDU2Nzg5OkNERUZHSElKU1RVVldYWVpjZGVmZ2hpanN0dXZ3eHl6g4SFhoeIiYqSk5SVlpeYmZqio6Slpqeoqaqys7S1tre4ubrCw8TFxsfIycrS09TV1tfY2drh4uPk5ebn6Onq8fLz9PX29/j5+v/EAB8BAAMBAQEBAQEBAQEAAAAAAAABAgMEBQYHCAkKC//EALURAAIBAgQEAwQHBQQEAAECdwABAgMRBAUhMQYSQVEHYXETIjKBCBRCkaGxwQkjM1LwFWJy0QoWJDThJfEXGBkaJicoKSo1Njc4OTpDREVGR0hJSlNUVVZXWFlaY2RlZmdoaWpzdHV2d3h5eoKDhIWGh4iJipKTlJWWl5iZmqKjpKWmp6ipqrKztLW2t7i5usLDxMXGx8jJytLT1NXW19jZ2uLj5OXm5+jp6vLz9PX29/j5+v/aAAwDAQACEQMRAD8A+qaKKKACqmqarZaNaPd31wkESDOWOM+wHc1ieLvH+k+EYwtw5numBKwREFh7t6DNeCeKfGOq+L77zbuT5RkRQpwsY9v8a5MRi4UVbdn0mS8N18e1Un7tPv1fp/mdR45+KV54lc6fpXmW1gRtcHG6Xnuew9vzrhrrFvEASC55JqWCJbWMsTzj5jWfK7Xcx9K8arVlN809z9OwWCo4WmqVCNor8fUl0+IM7TsOnSuUvbWTx34pGmRStHYWwLXM2OFA5x9TXRa9eSWdiljZAtd3P7uIDrnufoOtUZbU6Hp0eg6R5r3t64Eki8vK5xuP0HalTstzPGXqLk6df0XzPdPgZaW199u1e0iaOxtgLCzBGAQOXYfUhfyr1uud8AeFovB3hPT9HiGGijDSH1c8t/h+FdFXv0IcsEmfkWbYr6zip1E9Nl6L/PcKKKK2POCiiigAooooAKKKKACiiigAooooAKKKKACiiigAooooAKKKKACiiigAooooAKKKKACiiigAooooAKKKKACiiigAoornPHWmvf6MXjvks2tj5oMj7EfjoW7expSdlc2w9JVakacnZPqdHRXgtv4r1e0cPZ6rdxkdmlLr/wB8tkfpXf8Ahf4nW195dprO22uDwJ1/1T/X+6frx7jpWUa8W7HtY3hzE4eHPD3l5b/d/kd3RTUdZFDowZSMgg5Bp1bHz4UUUUAFFFFABRRRQAE456V4v4/8Tf29qh2PjTtPfC4/jPQt757f/rrr/id4pOm6a+l2T/6VcLiQr/Ah7fU/y+oryfU51hh2EjaT5jY7+g/z7Vx4mqkmux9twxlbVsVNavRenV/PZGLql0YgzlgHfoM52LWBFG99vuJCyWsPJY9//r/ypbueTV9Q8iNjtJ+c4/zxVDxbqkdpEulwE+XEA0x/vHGQv65P4V46TnI+3xFaNKm5PZfj5GN4k8R3GpAWUR8i1GSVX+72z7+1VdC0RtRlEjLshjGRnoB/jVfTbF9RuAWBwTk+5r0C309bWwMK4QsPnPoO9VVnyrliefgMLPE1Pb1zPSa30qwe+kIUYKxDv9R/Kqek6fNMy3l4N07jEaHnylPb6nvTeNd1EXJH/Evtfltk7MR/FW75qWFm99KcYGEB9a53p7q3PYpJT/eP4Vt5+f8Al95T1q/Fhbi1ib9433yKoaVp7TDzJB8vXHrVSyhl1vUC7ZKBsk11REdpGFUD5Rge1KWisOgnXn7SW3QrzeXZpuwN4HyjsPeoNPsGu5/tMo3c5Gf506KFr6fc/Mann3rcgiWNAFAAFRCPMztqNIz74spEa9AKsQKtna/OjBpMgFeuO5/p+Jq7Y2S3V4WfovPT8zWf4iFx/abyxRtsGESMD7qjgf4/jmr5Glzmbqpvk8rsvWkcDYI2x/VuavNCSvyMj+wNdBonwh8QX1lFdXNs1sHUN5bsvmY+hPH48+1WNY+HWsaRbZgsLggdWjHmE/XbnFdcKVRRu4njzzfByqezhWTfqec6xDKFcDehx/dB/nXm1pcsbt2BHLE165cSTKTDcLuXoQRzXjs0D6dqk9tLw0chA46jPB/Ec1lTiuZ2KzKpJKnLodLb7WgIbodv/oa0UlkyyWchz91VOf8Aga0VKWppGSsmfcGoajaaXbPc3k6QxICSWP8AL1rx3xf8Zry4laDQ82sK5BcgF39/9kfrXD+I/GGq+J5xLfXLPjhQOAo9gOlYYXLY7124jMW/dpfeeLk3CNLD/vMXacu3Rf5kk9zNeTPLM7SSOcsxOSTVuyttg3kHcentTLS2H3j0HWrNzOtvASOuMLXDFX96R9VN/YiUdRuORDGenX61UlvYtNgaaQ/d/WopLlYYnuJmAAycmqFtbyatG+oSoGi6QRk8Hn7xH8qlu+opS5fdW4WM9213Nqc+37Q8ZFurN/qE/vEep44rvPgX4Yk1/wAVxaxd75UtwZlZx/CD8v4lufoK4BoftWoRaXEzl5fmuCvVY+/4noPrX1h8OfCq+FvD0UTxJHc3GJJVA+5wAE/Afrmu3B0nOavstT5XiHHrC4aST96V0vXq/kvxsdVRRRXun5aFFFFABRRRQAUUUUAFFFFABRRRQAUUUUAFFFFABRRRQAUUUUAFFFFABRRRQAUUUUAFFFFABRRRQAUUUUAFFFFABUdzcwWcD3FzNHDDGNzySMFVR6knpUlc38Q9L/tbwlfQ7dxRRKB7Kef0zUzbUW0b4alGrWjTk7JtK/qZ2ofGDwhZiSO31MXtwo+WOFGwx/3yNuPxryrxJ4g1PxRetc3d2RHn93bIT5aD0A9feuHn0aeG9P2eRS27IUjAP5VvQwGLBYgew6V40sROs7SWh+qZbkWGwHvw1k+rs/u7FwIcZB60bpIiGHaqz3RDcDgVUutZaEiOP55D0FOVWMdz1o0Zy0Om0rxZrGgnNjdSwoTuMY+ZD6/Kcj8etd/ovxjtLlli1K18p8AM8R4z/un/ABrxmGG5lHm3s7op5EatgmrciR/ZkuoU+6cEcnIq6eImtUedjskweK/ix97utPx6n0bp/inRtUZY7XUYGlf7sTNsdvopwT+FatfMUMiTQmOYb4mHQ8irw+JPi7wnta11QXtmBkRX480Af72d/wD49XUsYkryWh8njOEJq7w07+T/AEf/AAx9H0V454d/aT0S8iJ1zT7mxCHbJdW486FfcgfOPoA31r1HQ/EekeJbQXej6jbX0OBkwuCUyM4YdVPsQDXTCrCfws+WxOAxGGf76DX5ffsaVUdb1aHQ9LuL+bBWJchc43t2H4mr1eTfETxEur6m2nQSg21sCpweGk7n8On5+tOcuVG+VYB4yuoP4Vq/T/gnLatqU2oy3F/dvl5G80t2znAA9u1cXr2ou0bYbljtArQ1jUBEv2UPuEXLHtu9Pw/xrn7d7i/m3RBQinO9+grwsTV5pcqP17DUFSgvw9CSPboGlSXcigzEcA9yegrgLppdTvim4uWcvI3qa1/E+steTiC3ctGp2oT1Zu7H8P51J4e0glhkcn7zGkvcjruebW/2uuqcPhibHh7ToraMSFQOy5H61Feai+qmWwtjiFiVnlB/hz90e5H6Go9Rv5ft76fYnBRBGXHRCep/kKs2lrHYQLFGOB+ZNcspW16ntUoKS9nD4Vv/AJf5ktnZoPLgjAVFHOOgArG1e8l1/UlsbMH7PFxx0NX9bu5bWFNMtRm+vBlj/wA84/U0lgkOj23kwDzJv4pD3NC91Xe5Na1WXso6RW/+Ro2dpBpNqIkxuP3mPc1Exa7favC1WCTXTBpC2PT1rYsrM8bR+lZu8nY7IWhHayH2tsEAUdKvFdq4rY0HwpqGtOEtIDsJwZWB2/8A1/wr1Tw18L7LTNk93++nHO5gCR9B0H6n3r0aGElJaHz+Z59hsJ8bvLsjgfCPgjUdSg3mJoVnYZZ1+bYPQe5xzxXougfDDSdKvf7RuYhcXW7Ks/zbf8Pwx75rsYYIrZNkKBR7f1qQe9etSw0IJdbH53mXEGJxbkk+WL6IKKKK6DwTwP4z2kmk+KZrmJm8u8ijnwRlQcFCB/3wCfr715Fr+ivqLCRrVJTjh4m2sB9D/jXvX7Qygafpcm0ZAn5/744ryQfMQCcBRXz2LXJWdj9jyBxxeWUvaLpb7nZfkcTaafe6fHerMp+z+VlCxG4HcvHFFdHfJ52i385Od4IB9FB4/wAaKzi76s0r0lStGGxoYwB705Bg9KgknCOAMs3YCrNnbNM25/ujk1zLV2R70mkrstRZkXYOIxyx9azdVvVZyoI2LU+paglpEY0IBArlWafWLoWkDFFJ/eyD+Ba0k+hyyly69XsWLaFvEd1tZimnwH5uP9awP3fp61Y13xLBp6i2tAJbh/kjjjxwf6AVV1fWotFsRY6cwXylKtJ/dHf8TS/D3wrLqE0d/NA0t1esFtozyyoTjP1Y/pWkY6czPPq15Rn7Km/eerfRL+tv+HPTf2ffAj3OrPq+ogySxETTF+ctzsX8OtfSFYfg7w1H4W0OKxBV5j880ij7zn+g6D6VuV72GpezhZ7vc/Ks6xyxWJbp/BHRf5/N6hRRRXQeSFFFFABRRRQAUUUUAFFFFABRRRQAUUUUAFFFFABRRRQAUUUUAFFFFABRRRQAUUUUAFFFFABRRRQAUUUUAFFFFABVfUQjafciU4QxPu+mDmrFRXIja3lEzBYihDljgAY5zSexUHaSZ81skYkNxwSw59qryXvmErGo471BDBLchQ7ttAHHSrY8qBdigE14cW2tNEfuHKovXVlNree56fKD36VPaadbWxaQAySjqW7USq8lwj7isZ447Va2lV6fj61UIK97DnUdkrmdbW81zfSzTE7AflFaKbIQUYfI3akEiRjjAqGSaORuTx7GnFKC8yJNzfkTQ28QyqPlR0HpWZ4w0qTU9FMNuxV0OTjqRViUxRR7kXL4wAPWs9Jr9WJSUgH+FhkflUzqxS5bfcXGg563+84/TdPu0DWMcyoD95ZFyK7nwtot7oN8urJq1xJehMJJF8gjH0HX8eKzb6yW7kR5opIJFbJktT94ehBrbsLxLmWG0t8huFCsefxrKjZS1Iq4Zez5bXXnqrHf+GPi3rmo6NqFlqtiBe2x8hNQj+RZic/Ns7MBgnHGT0HSuD1mRdMka785zMTtjUnjPckeg4rfnMVlbMNyrHEpJY8AnuTXnWo6m+rakZBuKj5UX0X3/n+NdWLqOMEpO7PNyrAUaM5OhG0Xv/kDRy3zbOQrH5iepqDxFqEWj2AsoMB3Ql8fwp/9fn8jWm00WmWUt3ccJEpYhf5fU9K80vtVk1e7kY5BmfdKewHZR7cAVxUYX1Z2ZrivZR5I/FIm05fOkNzKPmPRfSuln1H+z4ba1tFD3MgLsB2OBjPsM/pWRA1vpyIZkM9ywBitgcYHZn9B7dTWnpFk0O+6mPmTyEs0jDgZ9KmrLqycDScVyQ36vt/wWWNPshZRF5G3zyHc7nqzGrs866XaC9mUO7cQxk/fb/AdTSB1jjNzOC6g4SMdZW/w/wD1VNb6JPqFyL/VCrMR+7h/hjH071lCDb5melUqKC9lS/4YxtNsrq7ke5k3NJOdzuerew9B7VtpYR2ozKAGPIHf8q2Le3mnlWy0u1a4uW6BR90epPQD36V3vhH4My3LreazMZSfmKjIT6Z6n8MD3rWNCdR2jr+RxYjMMNgIc1aVvzZ5/oHhu+125CWls8hzgkDCr9TXr/hf4RQ26pNqziRuvlrwB/j+P5V32laHY6NAkNpAkaqMDCgY+npV/OK9fD4CFNXlqz4HNuLcRim4Yf3I/iV7OwtrCIRW0KRqBjgdqsdaKK70rHyMpOTvJ3YUUUUCCiiigDyP9of/AJA2ncdWlGf++K8gZDKIoQcGTLNjrtB5/oPxr3H4+WZuPBKzqpJguVYkdgQR/PFeH2ZL6lIT0SFFX8eT/T8q8PHR/fM/WOFKt8til0bX4t/qQ38OPDt0oGMqwGB0wf8A61FXb+L/AIkkqY6ox/U0VxXse1Wp870KmmWJkbzJBz1+lWtQvI7OEouNzcnHYVXudVisocAj/GucZ77XrzybYMAzfvJQOE9h71HMoqy3Oybs7y+SK2pajPczNBZwyXVweiJ/D7sewptsf7PszCJQJG+e4nz9446L7CtrU7iDw9aDR9LRRckH7RP1Kg+/rWRpekNqhV5Qy2S9D3mOf/Qa0UFFe8cEpznU93WX4L+u/wAivpmgvr92skylbJGyV5y4zX078HPBq2sP9vXMYXcvlWsZH3FHBb+g/H1rjPhr4FHiDUVWZGjsoAJJWA+96L+P8q+g4okhjWONQiIAqqOAAO1engqDk/az+R8dxLmMcNB4Ki7yl8T8u39dPUdRRRXqnwIUUUUAFFFFABRRRQAUUUUAFFFFABRRRQAUUUUAFFFFABRRRQAUUUUAFFFFABRRRQAUUUUAFFFFABRRRQAUUUUAFFFFAB0ryf4i+ODqbSaLpcn+iKdtxMp/1x/uj/Z9fX6dd74n+LP7IsP7LtZAt1dL85B5RP8A6/8AjXkEcgweeBXFiK2vIvmfa8NZMpJYysv8K/X/AC+/sPYCNCAMVQUZc7jyaW7uJH4iGT/KqiXESHAYzyf7JwoP1rzqlRXsff0qbtc0ki3r8w+lLJcrCu0nNZkupTA7WYJ6AVCbkv1JpPERWkS1h5PWRZnvoGJ3Ix+hqs91D1AdfxzTSgfkD61Zt7NGALJk+lY80ps3tCCKRuuy7jT4p7kn5Y8D3rYgs4wfuKKkkjRRjAFaKhK12zJ4iN7JGVGblyf3St+NdBoVq0ate3EaqRlIhgcep/Lj8TWfDGZZticDuewp2r6nJFALe0yeNqYP6/ia1p2p+/LoYV+ar+7jpf8AIzPGGtNdH7FC+2HPz4P3jnp+dV9NsEhiXavzN61Uh0pZJ/NvJ1YjpGh/nVyaA3YMX2m4SM9UtxsJHoW5P5YrklNzlzSOiEFTjywRyfxA1sylNFsd0jD95OUGeewrmtN0fUk5EXlO3IeQcL6YXq344H1r1Wz0mwsVzBp0Kf7TDJP1J60zUtRsrELJctCrr9xFXe/4D/61a+0ajZHlVsuVWr7etP8AyX9d9PkcjpPhm8XMhSWWR+Xkk+8x9ya1jaSQ3KQySCaYdLeFstj/AGscIPrz7VNLe6tqcW8btOtD/FL/AKxx7KOB+v4UW17baXGtnp0Ly3EpwSPmkkY9zWLab1OuFJQjaGkf6/rX8TSSFLVlmutktyBhFUfJGPQD0/Wur8IeDdV8YSh4w0Npn552HLf7vt7/AM61vh98HbvVHj1XxKDHCcMlr6/73+H/AOqvcLOyt7CBYLaJYo1GAFFd+Hwcp+9U0R8xm/E1HCp0MGrz6vov82Y3hvwTpXhu2EVvArP1ZmGdx9T6/j+ldB0oor14wUVaKPzyviKlebqVZXb7gTQKKMVRiFFFFABRRRQAUUUUAc58Q9LbWPBerWiDLmAyKMZyUIbH44x+NfN1omE8wgZKID9QCP6V9ZlQwIIyDwR618z69oh0DWtT0wrtEMnyc9UzlD+Ktn8a8vMIaqZ9/wAF4pclTDPdNSXz0f6FO5iDaeE6llP6qaKfKuNuegC/4UV5zhzH3NOpyo8tsBqfjLUjBDuEMZAkkHRAT0HvXa6l9m8MWiWOmf8AH26H588Rju5/X6mtG3isfCmjx2NjBmYLtcngu/1/may9N0R9Ukkvb8v9mzkn/nsc9Of4RTcUmkt/y/4P5HJRpzUXOo9X1/y8vzMvTtFa/V7i9Z2ti+S0hO+fA9fSuw0bSnuHi2QFt7CK3hUffPQAUgiN9LyNkCDgdvoK9c+FvhErt1++hKnG2yQ9ApHL/j0H4+ta4fDupPXY58zzCnl+GdR7/m+i/wA+yOy8JeHovDOiw2SfNKf3kz/3nPX8B0HsBWzRRXvRioqyPx6tWnWm6k3dvUKKKKZmFFFFABRRRQAUUUUAFFFFABRRRQAUUUUAFFFFABRRRQAUUUUAFFFFABRRRQAUUUUAFFFFABRRRQAUUUUAFFFFABXD/Fu112Tw9FeaFPJHLZTedKsbEMyYIyMdcZ6eh9q7imuiyIyOAysMEHuKipDni4nThMQ8PWjWSvbufHl/4t1C8u2kvWd5ifmdjktWtY3qm23yOBnmug+KHwov9E1B77S7Sa702QlgYkLND7NjoPfpXnVx5yRPGNyuo+6wwR+FeBUhKEtdz9cwONp1aSlB80elvy8izqviE3NyLO1JEYPzkdW9q09MRVVQRgkVzWgadK1w8sqnPuK7Gyt9uDgH096xScpno0JydNzlpcmfTo7oYYA/WqzaBdKc28oI/uv/AI1sxGQABVA/GrKebjnFdyoQlujB4mcdmYMejaiePIDH/ZarcOiajnGAntu/+tW3GjrjJxVuJCwyD+NawwkF3MKmPqeRkQ6JdY+eRVHr1qSTS7e3BaaV5CO2cCrGpaxa2CZkuIgVGcM4UZ7da4LW9bkv5y8niW1s4B0gtgJCfcnbnP0wKKkqdNWWrMo1Ks/ek7L5L8zY1TUpihjtLSUxDjCAAt9M9K5u+1PxBLJiPSTBFgKAg8xsfy/SmW09vP8Ad1W/uh/0zi6/jViGREkydN1GRfV51/lkV5sqkm9T01BSiuRtehTNzrMpGNIlwBgFgVP51J5moqQDE0Dd83if4Gty3udPZR5li6HspQE/zqVPJdj5Vi+M9Tx/jU8qexqoyW7f4GCq3ciHLXE0hPRGY/qdo/LNPjsrqEgxQQwP182XM0h+pOBXVRRX8vyRQxRqOpwT/QV0Xhr4b6n4jnDyTCK2H3pBHjP0zW0cLOXwo5q+NoYePPXkkl/XQ8+03wlqPiG+S2i+131xIfu7sAe5x0H1r3r4d/B7TPCUaXl5FFcahjPC/LGfb1PvXXeHPC2neGLMW9lCA38chHzOfc1sV6eGwMafvT1Z+dZ1xPUxd6WGXLDv1fz6LyEAAGAOKCaWivQPkhAD3paKKACiiigAooooAKKKKACiiigAryz4v+GWaeDXYFARlFtcH0P8DH88E+wr1Oq2o6fb6rYz2N5GJIJ0KOp7g/1rKtTVSDiehlePlgsTGstuvo9/67nzjJAXgkkA54/DFFdLrnh+50O8l0+6wzcukg6Srnh/qe47HPbBJXjSptOx+qUMbCceZO6exwFtpkl/dublwyRYE79s/wBxa1HUXAWNF8uBOAo/p71oWWlNOkVlZr+7TGSeNzdyTXR2/hp7J7ZV8ua7nby4o8fxev0Hc1vQwj5bv5l4rMYQer9F+v8AWxW8E+C5Ne1RYrqIpZQYacA4OMcL9T3r3GONYkWNFCqoACjoBWfoGiw6FpyWsYBkPzSv3d8cmtKvSpU1BH5hnOaSx1a/2Vt/n8woopskiRI0kjKiKCWZjgAeprU8cdRXkOr/ALUngDSr+S0h/tXUhGxUz2cCGIkdcF3Uke4GKS1/al+H9xjzP7Xtv+utqD/6CxoA9forziz/AGh/hrecf8JCYT6TWsy/rsxWxbfF/wAAXePL8W6Suf8AnrMI/wD0LFAHX0VkW3jHw1e4+zeIdInz08u8jb+RrThuYLhd0M0co9UYH+VAElFFFABRRRQAUUUUAFFFFABRRRQAUUUUAFFFFABRRRQAUUUUAFFFFABRRRQAUUUUAFFFFABRRRQAUUUUAFY2s+DfD/iD5tT0m1uH/wCemza//fQwf1rZopSipKzRpTqzpS5qcmn5aHBT/Bjw25JtnvrX0VJAwH/fQJ/Wsyf4LujM1prSbf4Y5bb+bBv6V6hRWP1al2PVp8QZhDaq362f5o8ib4Sa6se5bnTjID90SPgj67a5K/in0m8ktL6GSCeM4ZWAz/8AXHuK+iq5rxx4Pj8VaawgKQ6jGP3E5HvkqfUH9D+Oc6lBqN4bnr5dxPUdVQxduV9drf8AAPFFvQSWWJm92PAp0cesay5j0+2muGXqIYi2PTgdB7mu+8N/Bwo63HiHUJLgjkW0J2oPqf8AD869KtLO3sIFt7WCOCJeiRqABWMKFWa992R6WP4mw1CXLho8779P+D+B836h8NPGEoJfQ7mVW5OXXH5KawZ/hh4oTIbRLyJc5IjtGA/MDn86+tKKf9nQ6NnnLjLEP46cfldfqfIB8HavYhUm86BV6B1K/wA6t22lXyEYkRgPfNfWlNaKOT7yK31Gaj+zI3vzHXT44lFW9j/5N/wD5ht7G7BG4x5rXsNImeUDG6RjgIgyT+HevoL7DaZz9lgz6+WKlWJE+4ir9BiuiGEjHqZVuMXNaUrfP/gHnHhb4eySlbjU1aOMciIjBP1r0W3t4rWJYoY1RFGAqjFSUV0xilsfLY7MK2LnzVHp26BRRRVHCFFFFABRRRQAUUUUAFFFFABRRRQAUUUUAFFFFAFPU9JstYt/IvYFlTqpP3kPqD2NFXKKiVOMtWjppYyvSXLTm0vJnk9lawWMRkfbFBEu45PQD+tdV4L0WSRjrt/GBNOoFvGeTDH/AImsPRrFfEWuiyQI1hp7CW5cciST+FPoOtekgBQAAAB2Han8Tt0R7mb4yUF7JfFLfyXb57vyt5i0U1nWNSzsFUckk4ArL1XxboGhbP7T1ixtN/3fNmUZpt23PnYU5zdoK5rVwPx3v5tP+FWvPAxVpIPKJBwQGODUN78ffANlK8X9rSTlc8wwOyn6HGK89+JPx78IeLPC+p+H0tNUUXMZRJzGgH1wWz+lQ6sO51Ry7Ey+w/np+Z8wDjpwKkU12eheCdB8TXH2XT/EDRXTD5Le4jCux9Ac4b6Zz7VHrvwz1PQTuknWSDOPM8vGPqM8VM8RTgryenzOujkGPrPlpU7v/FH/ADOTFSKavnw9dDpNCfqCKaNEvV/hib6Of8KhY2g9po0qcM5rD4sPL5K/5XK6sfU1PDPLA26KR429VODTv7JvlGfIB/3XFH2G8H/LrKfpg/1rRV6T2kvvRxVMpx1P46E1/wBuS/yNO18WeILPH2bXdUgx08u6kXH5Gtu0+K/jm1A8vxVqxx/z0uGf/wBCzXJfZ7hPvW04/wC2ZoG5TgpIv1UitFJPZnHOlOnpOLXqrHo1n8ePiHanjxA0o9JbeJv5rmti2/aR8dQ48yTTZ/8ArpbYz/3yRXkqyoOC4H1NSpIrdGB+hqrMy547XPbbX9qHxGoAudG0mX18vzE/mxrXtP2pZMgXXhdCPWK8I/Qoa8AU1IppFH0lb/tOaK+PtGg6hH/1zkR/54rWtv2i/BswHmRarAf9uBTj8mNfLynI4q1cxQQyhbe6FzGVVt4UrgkAlcH0OR+FAH1Xa/HPwHcnB1eSEn/npbSj9QpFacHxT8FXP3PEdgP+ujFP/QgK+P1NSqaAPs+38XeHbsA2+vaVLnpsu4z/AFrRhu7e55guIpR/sOG/lXxIjEHqanjkZDuViD6igD7Zor4I8Q+MdbttQW3sdY1C2WBeTDcOhLHk9D6Y/Wm2nxZ8e2QAh8X63gdA927j/wAeJoA++aK+HrT9oL4l2ZBXxPNIB2lgifP5pWxbftR/ESDHmXOm3H/XW0A/9BIoA+yaK+T7T9rnxdGALrRdEn9SiSoT/wCPmtmx/bDuA6i+8IxMn8TQXhUj6Aof50AfS9Fcp8O/iVoXxL0l7/RpJFkgIW4tZgBLAx6ZAyCDg4I4OD3BA6ugAooooAKKKKACiiigAooooAKKKKACiiigAooooAKKKKACiiigAooooAKKKKACiiigAooooAKKKKACiiigAooooAKKKKACiiigAooooAKKKKACiiigAooooA+cIPjc/h+0FnodjBBCCSRJ87sxPLFu5rGvPjr4vuiy296UVuyxrkfjiuftvDEcbBrqUN/sitWCys7SL5YlVRzlq8R4mdrL/I/XYZRSlJznCN3vpd/e7mTeeJfGOso8Vxqd8YpDuZWkbafyrEudLlVTJdzO7DuTW9qviexsFKiQNJjhRXC6v4mlvnJ3bUH8INTFVJ6sMRLC4ZWvd9hb66ijyI+nrWLPc7s5PFRT3Dt8zMEB/vHr+FUJZ89P1rspUD5bG5mrmjpDTz63YQ2zss8lzGsbA4IbcOa9517U/wDRr4yxpMIBIRxncBnj3yK8p+EGgvqfiKXV5Iw1tpMfm5PQzNwg/Umu/wDEl19l0e9ZeWMT4z9D/UisMX7r5Ue7w6pSoSry76fI5zVtOFjMrxEtbTKJIm9VIyBVIV3Fzpsd9pUVi3y7YkCN3QhBg/59TXAzxy2s7wTbkkjYqwJ6GvFqUrO62P0TB411Ics/iRZWnjpx1q7p2kade2ySSeJrKzmIO6G4hk+X0+YAg5qSfQBBaNcxa/otyUXcYY5iJD6gAqMkc0vZStcp46lzcrvf0Z2et33gm+8JhLOzsra6iQGBoU23LOScI477RgF2JDYYjBKiudNt4a8gGO+u/MEsf8JBKFR5nGMAht2DnkEcVzSSt6j8q3Lbwtrt3ZJfW9nFLbuFKss8efmOB8pbPX8q1cpTfwr7jz4UKWFjZ1ZJN31a69Nf61YuqWGlQBG0/URfKzuCGTayqD8hx7jOfTHvW18NvBukeMPEy6dqisLZYXmZYQA8hBUBQcZH3snHOFNYmoeH9a0WJJtR0ya2ifG2RiCrZ6cgn0Ndh4H8HPfada+IrPxDNpV5FMwUrGCEZTgc55yDyD64rCvjqeCcauIuo3Str+l2cOaTw31KV6iu7pStezd7bL9PxO5m/Z9+HLqGUapBu6fOf6rVCf8AZy8HSD9x4gvoOM/Ns6fkK14rvx9EPk8b6VcDOP3tgo5/4DU39sfEePpf+GLsd99vIufyNdUeLMpbt7Rr/wACR+X/ANn1+lalL1j/APJQOWk/Zo0sA/ZvFzZHGJIgf5PVWb9mLU8A2viO0ZSMjdEwz/OrL/HfXYJpILrQdFlZGKvtMi5I49/etC2/aIusATeHrcgf88roj+a17Mcbh5aqT/E6ZcNZql/Bg15ci/Kxy91+zl4ls13DVdLkGcDdIy5PpytcbdeCdXs7+ewljZLq2bbLGY+VP1zznqMdRzXssvx80+9hMN34cvQjdfLukJ/p2zXF6342XXPEd5qxsTHDcKqCIsC6hV25J6ZIyD7NUVsalZ05/h/wDsy7hqc3KONwyWmjUnvddpvpfocT/wAItqoQP9nmKkAg+RJggjI5wagudPvLOGSWSJP3altrMVJ9uRXaL4pu/wCCJY+ST5c0q59M4bqPWsXxR4iguyovLAzyy8km6kJAHQc578/hXLUzSrBNpX+7/NHqU+DMLVqKHJJLykv1PIp9M1OSV5Zbcu7sWYhwck/jULader1tJj9BmvQtJ1SPTNYW8iR4YssoAw7RKwIyM8EjPfrjHetzw9qvhqTxVd3WvQsdPliKxvsO7zBtw7AZ5bad3+8adPNqkrcyS+//ADNsV4f4SmpShKo0lf7Ld+1uVfmeOm2uF+9bzD6oajYFfvKw+qmvRNXNkdTuBpygWittiI3fOBxv+bkbsbsHpnHaqdP+2WnZw/H/AIBH/ENYTipQxDV+8Nfn7yOG3L6igMD0Irtmhjb70aH6io3sLR/vW0J/4AK0Wcw6wf3nLPw0xC+DERfrFr9WdT+zFr82kfFK1sBIVt9Uglt5FJ4JVDIp+uUwP96vsuvgfwBP/ZPxR0CVT5axarBnbxhTIMj8jX3xXrwkpRUl1PzmvRlRqypS3i2n6p2CiiiqMgooooAKKKKACiiigAooooAKKKKACiiigAooooAKKKKACiiigAooooAKKKKACiiigAooooAKKKKACiiigAooooAKKKKACiiigAooooAKKKKACiiigD4n1T4gWNkSLRVnI43E965XUPEWsarmNmlCNyFVT0rdL2EUZW3slTnIG0AVGbhn4MWR/vV48VbaJ+qYic6rtKtp2SZybWt9I3/HtMx6ZfgU1tNv9p2xxq2OCx6fQV1oQucuQPYCpGaFOqrkVopz8jz5YSi07yf5HDSaNeY3yOu7uWOapvZLEf3swP8Auiu6le3lU/u1Kr1Y9BTvBuiW3ijxIluIs2VspnuZSP4V5x+JwK2VWSWp5k8tpSmowW/e7O08FaOPC/guG3IZJ71heT7uoyCEB9OMn8qoeIpDNaLGBnzpki/8ez/7L+tdBq935kkhXgM2Qo6D0H4DArnLvfNqen2o5wxlI9zwP0H615Feo3Kx+h4XDRo0FCKtsjpXypUHOVVVP4KK9J8BweFdesZLbXNA0+8vIBuWV7NZHdPc4ySP5EV5zKN874H8ZFbnhbVrjQNatryMZCNhlzwykcit6MlCpd7HnZvhpYjCuNN2ktVZ21PVI/hh8PtR3hPDVj8p+bbE0f8Ah6VXuPgX8P7j/mAiP/rncSr/AOzV2Gkava61Zrc2jkr0ZW4ZD6EVdr2PYUpK/KvuPy7+08woycfbTTX95/5nmsv7PfgZ/uW1/F/uXbf1zVCf9mvwhIcxXmsQt6iZG/mles1DeTta2k06xNMY0L7FIBbHYZqHhKL+yjeHEWZx2ry++/5nkL/s06QARD4i1VBnOHVGGfpgV03hf4VJ4Y0mTTBqn22J5mmBmgAxkKMYB/2c/jW/H450VplhluGhdiqjepALHnA/DB+hHvjfrlxWTYPEw9nWhdb7tfk0FfiHMK8PZ1at16L/ACORfwJCwI8uzYHk5ixk0xPBL27q8EdsrL0KkiuxorzJ8I5fJONpJf45fq2cax9ZdfwPnvW/gl4wn1S8ubWPTZIppnkTNyVbBJIzlagn+GHj/wApo30DSZARjdDJGGHGODx/+uvouivS/sfD2UddD6CHGWOSScYu3dP9Gj5fk+GfjWD73hy7bH/PN42/9mqzF4Z1i2gSO8+HWoSsi4aZJJAznPUhSR7V9L0Vf9mwWzf4f5G741xM1adOPycl+Uj5hm0yOJW87wbr9u2CAytIQp7HBT9K841iG+lvZJpbO5iXO1d8TLwPqPxr7loIBHIBrOeVqX2vwOrC8dSotv2F/wDt5/qmfDNqmkNYSNdXt9Derv2RpEGjbgbMtuBGTuB44496zw5/vn86+7pdOsp/9bZ28mf78an+YqlN4S8PXGfO0HSpM/37SM/0rGWUPpL8D0aXiHFN81F/+BL/ACR8Y6dYW17AHm1q1s5N7KYp434UAEMCqkHJJGOvGanvNDFpavcR67o10EAby4ZW3tnsAVGTX1tN8MvBU5Jfwto+T/dtVX+QqlN8GvAM/wB7w1aD/cZ1/kwqXlMrbr8TePiDQ5ruM0u3uv8AyPj/AM5/9n8qPOb0FfV8/wAAvh/MSRo8sRP9y7l/qxqlN+zj4HkzsXU4f9y5zj8wayeU1fI9CHiDl73U18l/mz5CuLxtP8Qw36D54ZY5h9Vwf6V+hkbrLGroQysAQR3FfFv7QPw80/4d+J9PtdLlupba7tPNzcMGYOHIIBAHGNv519a/D/UDqvgXw7fM25rjTbaRj/tGNc/rmvdoRcKcYy3SPynNsRTxGNq16Xwyk397ub9FFFannhRRRQAUUUUAFFFFABRRRQAUUUUAFFFFABRRRQAUUUUAFFFFABRRRQAUUUUAFFFFABRRRQAUUUUAFFFFABRRRQAUUUUAFFFFABRRRQAUUUUAFFFFAHwmQo5JpDKqDJ4qF5+4FVnd5jtUHmvMP0bmJ578jIT8xUDgiPz7qTy489P4m+lO2x2g3yEO46CsLVdQmuJCCTj37U0rmNaryRu9Ruq6y82IIlIXokadz2z6mvXfB+jf8Ih4WWCVv+JhqGLi54+6MfKn5Vwvwr8KpqerSa1eRk2enEFAeksx6D8Opr0TVLnzpmJOSeSfWscVV5FaJ6XD+ClVk8TV67en/B/rcqvuubhI+7HFU7MrfeKS8anyo+AT/dUf/WqzO/2HT5LtyAzjYnqB3NQ+GYSsUt0Qy7zsXI6+przI7q/U+tqtPRdDbSQ79x6k5NaMT5ZSM9aytwJz2FXbeX5lI6EYreLOWtC6O88Ma5Jol7BdRs3lSALMnZx05Hr3Br2RHWRA6nKsMgj0rwGybdbKG6Zx9MivVPh3rMmp6TLaz8y2LrHu7spUMPyJI/CvWwtT7LPzriTBafWIrVaP06HV0E8GoUaY3Dqy/uwPlOPp7/Wpq7j48oGbT3O54kDE/wAcPPU+3uf1q1BcR3AJik3AdeKeJUJwHUn604AdQKADn1o59qM0UAHPtRz6CijNABz6UZPpRRQAZ9jRn2NFFABn60ZFFFABketGR6iikfO04644oAXIoqkJNQAGYISe+Jf8R9aljaZot0ihJMcoCCPzoA+c/wBsayO7wpfKOALuFz9fKK/yavU/gDefbfhF4ecnOyKSLP8Auyuv9K479raw+0eAtLvcc22oqCfZo3H8wK1P2WdQ+2/CtIM/8eV9PB9M7ZP/AGpQB69RRRQAUUUUAFFFFABRRRQAUUUUAFFFFABRRRQAUUUUAFFFFABXin7Qfxov/AjW/h7w8yRarcxefNdMob7PGSQoUEYLEg8noB05BHtdfG37TbM3xYvQWJC21uBk9Bsz/U0ANuNb+NnhjTYfFt5qPiKHT5trLNcT+bFhvu5iYkKDxjKjrX0X8Fviafib4Wa7uoo4dTs5BBdpH91jjKuo7Bh29Qa7m4sbW7tTZ3FtDPbEBTDKgZCB0BB47CuY8a3Nn8PvA+va3o2nWNncwWrMhhgVA0nRCwUcgFv50AbeqeKdA0OZIdV1zS9PlfGxLq6jiZvoGIzWhBPFcwpNBKksTjcrowZWHqCOtfGPwz+E+q/GmXW9UuNeFtNbspaaeMzPcSvk4PzDA45PPUYBrqf2XPFWqaZ4zuvCNxM5sbiKVxAxyIp0IyV7DIDA464HpQB9Ijxh4bbVDpA8QaQdSDmM2YvI/O3DquzO7PtipdP8TaHq13LZafrOm3l1D/rYLe5SR4/95QSR+NfHXjPRbnxJ8d9U0a0ufss1/qzW4m5+QMcE8deCeO/Ss/4m+Arz4Q+LLfTYNZe6le1W7iu4UMDqGZ0xgMcHKt36GgD7THivw+2pHSxrulHUAcG0F3H52f8Aczn9K0Li5gs4HnuZo4YYxl5JGCqo9STwK+LfiN8GLv4deFtG8QS6xHeHUGRHhSEp5Dsm8ANuO4cHnAr2my8Q33if9l681DUZWmuhp08DysctJ5bsgYnucKMnuaAPWW8V+H0tJb19d0pbWEgSTm7jEaE9AWzgfjVrTtUsNYtVu9NvrW+t2+7NbSrIh+hUkV8X/CH4SXXxXOqwJrQ0yDThE7ZhMod33Bfl3LjhG55re/Zw1K+8OfFz/hH3mcJdrcWtxEjZjMkSs4b8NjAH/aPrQB9St4v8OJqv9kN4g0hdS3iP7GbyPzt56Lszuz7YqS08T6Ff6hJptprWmXN9H9+2iukeVPqoOR+VfH/xM0241r49ajpdrcG2nvtUhtUmyRsMgRM8c/xV7b8Pf2atI8FeJ11u+1NtYNsFezjeHyxFKOrsMncRxt9PcgGgD1TVfEuh6DgatrOm6dkZH2u5SLP/AH0RVuyv7PUYfOsrqC6izjfDIHX8xXzN8SfAfwuTx1qV3rPxEms2uG3S2kcT3csUx+8C4DYUcYU8jpngVx/wb1l/C3xisrHQtVe90u8uzZtIFaNbuE5CsyNyCMhhnoRQB9c6t4x8NaDdC01fxDpGnXBUOIbu8jicqcgHaxBxwefapZfE+hQamulTa1pkeoOcLaPdIJm+iZz+lfK/7Vv/ACUy3/7BcP8A6Mkru/Cv7LNjDqmnavr+tvqsRTz7q0MRUSzHBAL7iSvJznBOPc4APf6KRVCqFUAADAA7UtABRRRQAUUUUAFFFFAHwc0QqazsZ76cQWyZYnk9lHqa3NG8J3GpRS3dwxtrOIZZ2H3vYVpIbe2iNtYwGJCPvbfmb6mvFrV1BaH6xgctlXd5aI5zVdDTTonWOQSyN96Rhk/QDtWPaeDZ9UnWOBNzSMB+degWeiTXcgDRsRnqVNbdklpp0UlxbYZhmNWXoWxyfw6fjXNSdWWrdkepicDhvhSvboU0sLPw5psOk2ZzFbg7m7ySH7x/Pj8Kzo4WvLgIehOWPoKkuJWnk65GaS8Y6fpxZQfNnOwewrOb55eSPQo01QpqK3Mu48zxBqaW8YZbWI7FHbA71vsqRKI4hhIxtX/Gquj232Cw3EYll9ewp88m1OByelJOyu+oKN3ZCEl5FiXnnmtaKIAwxr681mWI2sWxkgVr6eN7byMlRtH1NXT7syxLstOhsW3Fu3uwxXa/DG6CeJL62GQZ7CKUjsSsjjP5MK4d5kigHIyOQPU11Hw0lkPjbaTx/ZeCP+Bg/wBa7qLtOJ8rm1PnwdW/a/3WPUMwx6ryzeY6Yxxjn9eiH26+tXarT71u7dl2bTkNnGTx+f5VZr1z8yPDtceKDxFqcG4Iy3UnGccFiR+hFRK7ryJZR9JG/wAaX4m6ZDF4s1Cfyf3sxR0COQWOxQSewHH41zNnM8D7Hu5rc/wl/mU+xqWcretjrI7y6Q/LeXQ+kzf41Yj1fUU+5qV6PpO3+Nc6NVlg/wBabaZP78TYP5Ukmv2kQPkq8kh7AUAmem+PNT1K10TR7+yvbi3MnyyeU2N5ZAwz/wB8n8642Pxl4hT/AJi92frtP9K6zUml1v4caRcRopkHllgexAZT+tcd/Zt6P+XdT9DXNVupaM9KlZxLyePPEKf8xKQ/70aH+lJdfEzxDBtVb6Ik8/Nbr0qkLC6HW1J/Gs25tLiSVmNlJjoOlZucl1NVGPY9CufGmsn4XzeIbWa2OpQPtZ2iymPNC/dyP4SO9eYL+0F40t2KyxaPLjrm3dfx4eu0gt5Lr4OeLLTa8MkMM865HI2xhxj8UNfNzarNFiO+RiB0mQZx9RVTnLRp9DWhTg0011PYF/aT8WIr7tH0SQrjn96uefqau2f7SevzKpl8PaVyf4biQf0rw03SiQ4cMkkbFSvRsc8flUhvClmxQ/PKfKj/APZj/So9rPuaqhT7H2N8NPGr+PvDCazJaJaSGeSFokkLgbTwckDqCDXV4rx39mS5B8HajYk/PBfmTH+y8aY/VGrX+Knxl/4VrqNrYjQ21BriHzg/2gRgckYxtJzwK7abvFM8ytFRm0j0vFZuuat/Y9qkoVXZ3CKGOB/nt+NeHp+1migibwbcbvWO+XH6rVrTv2gtC+Iepaf4avfDGpWr3t1HHDOJ43WGQnCt2PBPp0NZ4pVXSkqLtLoOg4KovafD1Nv9oKaLxB8D7/UoUYCOS2nCMOVPnKjD8Nx/KuZ/Y/1F5NB8RaaW+SG6inUe7oVP/osV6d8RPD9uPhN4j0mIM6LplwyluSXClwf++gDXiH7H+orH4i8QaaT809nHOo9kfaf/AEYKqhz+zj7X4rK/r1FV5Od+z2vp6H1JRRRWpmFFFFABRRRQAUUUUAFFFFABRRRQAUUUUAFFFFABRRRQAV8vftVeB9Qi1+38XW1u8unzwJb3LoufJkUnBb2YEAH1XHcV9Q02WKOeNopUSSNxhlYZDD0IoA+Tta/am8R6l4Wi0qx0+PTdTCxrLqcU+4ttxkqhXClsc5J4Jr0Pwf4e8deNfg34hXxRf3Nzf6xAf7PguQFKKoypIwMb29ewB716hZ/Dzwdp96t9aeFtEt7pTuWWOyjVkPqCBwfpXQUAfGXwn+Ltx8HTrmnXuhyXUlwy/unk8l4Zk3DawIPHPPcY966L9l7w5qWr+OrzxXLAy2VrFKpm2kK88mPlX1wCxPpx6ivpHWPBPhjxBci61fw9pN/cAACW4tUd8emSM49q1bSztrC3S2tLeK2gjGEiiQIij0AHAoA+R/8Am6L/ALj3/s1Wf2tf+Sjad/2B4v8A0fNX07/wh3hr+1P7W/4R7R/7S8zzftn2OPzt/wDe37d2ffNLq/hDw5r9yt1q/h/SdSuEQRrLd2ccrqgJIUFgTjJJx7mgDxX9pr/klXhf/r6h/wDSd6PCP/Jp9/8A9et5/wCjnr3DU/Duja3aRWeqaRp9/bQkNHDdW6SpGQMAhWBA4JHFc58QfDUafC/XdD8O6TDF5lpIkFlZQqilmOcKqgDJOTQB8ufBn4vD4Uy6u0mktqMWoJEMLN5ZR49+3nB4O9vyrY/ZzsbzxH8YRrrRNstVubyd1HyK0isgBPuZDgex9DXc/s6fDO8srTxNZ+NPC+23uTaNDFqNsGVyvnZIDA8jcOfeveNI0PStAtfsmkabZ6fb5z5VtCsak+uABz70AfJXif8A5Ofh/wCxisv/AEOKvr27WZ7WZbdgkzRsI2PZscH86zJfBvhmfVBq0vh3R5NREizC8ayjM3mLght+3duGBg5zxWxQB8KeDb3w/wCFPFd+vxC8PXmq+WskTW+/Dx3G4ZZgWG7+Ide+eau/D66s7742aLdafp/9m2U2qpJBaZJ8mMnKjJ68Y5r7F1XwX4Z1y8S91Tw/pV9dJjE1xao78dOSM0v/AAh3hr+0xqv/AAj2j/2irBxd/Y4/ODDgHftzkYHOaAPl39q3/kplv/2C4f8A0ZJX1pY/8eVv/wBc1/kKztW8HeGteuhd6v4e0jUbgKEE13ZxyuFGSBuYE45PHvWsqhVCqAABgAdqAFooooAKKKKACiiigAooooA+VNWvzMkdrbgJBGMeWnQe59TSaVp6iRGmlkjjfPK9RU2i2DkmSRAAF3ZbgYqPW9XimZ/JVIoFGGZf4vp7V860re1n8kfvCevsKW3Vkus6ntkh0zSbuSRpFCTTngY6tt/PrUF06IqW8ORHGoRcen/16p6dEEhe9mXDygrGuMbU/wDr1Zt4WnbcR1qZVJT17/kOFONP5fix9la+Y25uFFQ38X26/jQf6uLk+grWCCOPYgxVC5kSEFEOecsfU+lOUEo2FCblK5FNJvc4GB0A9BUAzLKAOewpGbjryetW7KEpGZMfMeFFY/EzodoRuTR4hUqo3EfL/vNV+2dbWLacFuSx9zVKNQJCSflj+UH1Y9TU8IEmZX4Too9a2RxVVdaliRmkUMxPzEBRXbfCdPO8YX0xP+qtzGg9QCo/p+tcEZjLN5g+5EN349v1r0H4JReZqOqTnJKRIuf95if/AGWunDa1EeJni5Mvqy8rfe0eoX4j823Mik/OMEEDuD/MD8quVV1F5I4A6TJFtbJLttU8HAJ9M4q1XtH5OeQfFP7Jb+Js3EwjMtuj7XXhhll4Pr8tcFb3dnJqEmnCZZCyebGrDkLnB/DNem/FywuJdU024hS3dWhdGEvQ4YH/ANmNedt4Vik1aLUmuHjkiGFjhHy8jBBJ6jpx7UjlmveHLotnkvLCAPUHFAitIHCwwIue55NXtQsFnj8o3xtZCuVOVz9cGsqz02WBmCSbypw53Zcn1ycikI9Z8P3Gz4bKzDP2eVgeM9Zc/wDs1Y8XiTTpJWiFxB5inDIWww+oPNafgaRx4I1eMRSvJCZJFWVwSx8sEc/UV5x4wsNP8StBdT6O0F/CQvm7c74+6kjnjqPxHesKye6PRw1nGzO/OowFMgA544qMXVs3VV/KvNhp+jhkiR5IDGMfJNIhH61pW9vBEAE1bUAPT7ST/MVyOpLsdagu56lpMEOqaFrenxgf6RbNGQP9pGWvkglbsqFQjK9xX098MZiNZubf7dLcJJbFtshBwVZfQf7Rr5u8RKNFudWXGPs00saj02sRVyd4RZdBWlJHJXJxdSGD93bo7Iz/AHssBgnaPdscenPWr1iDPKjMjRxouyJH6he5PueprMtLeU2g8uQx3CDzYn/2sfMD6hu9aWn6ol6ojlQRTYzgdG+nofak9tDWO+p9C/sx3AW61+2z95IHx9C4/wDZqwf2o3vH1vRppbYwReTLHG7DIcq/Pf0Kn/gdN/Zs1EweO7qyY4W406Qj3ZXjI/QtXd/tIeCtU8U+H9LvtG0+fUbvT7h1e3hUMxhkX5mA7kMkfA5wTXZQd4HnYpWqM+UZLiRTkeT9MHNbngG8e28caBdMY28nUbeTYuQXxIpwPc1n3+iX9s7Ld6FqULDqr2UqkH8Vq74V0DXLrXbL+zPDuqTTpMjKFspABhgcliAB06kitjnPujWLH+09JvbE4/0m3kh5/wBpSP618ifsuagbD4rxWxJH22zntyPoBJ/7Tr7Hr4r8AKfDP7RENoPkEGuXNmP90vJGPzBFAH2pRRRQAUUUUAFFFFABRRRQAUUUUAecfE/42aX8L9Us9Pv9Lvbx7qAzq0DKAo3EYOfpXe6Vfrqul2eoIjIl1Ak6q3VQyg4P518jftN2+tw/EaSTVJd9lLEracu4HZFgBhgdPnDHmvY/htqnirwL8LtT13xtM13Fa26XNgglViYPKGxOOmTgc+tAHsFFfImj3fxb+Ms1/rOn+JXsYLaTasSX7WkYY8hI1XqQMct6jJrvP2e/i5rut65c+DfFM73d1Ejvb3MmDIChw8bkfe45B68Hk8UAe/0V8sfFH4p+M/GnxCn8GeDry7tIIblrKOO0k8qS4kUkOzOMELkN3AwMmu2+CvhL4saH4juf+Eq1e6XR4Fw0F3cfavtLEceWxJKAdScj0wecAFzS/iF8T7n4pvoV14Wki8NjUp7cX39mTqDArMEfzSdvIC/N0Oa9lr5k0D4meL7r4/y+Hptdun0ka3dWwtSF2+WryBV6ZwMD8qm/aV+KHiLS/E0XhbRNSuNOto7dJZ3tXKSyu5JALDkAADgYzk5zxQB6H8d/ilrXww0/SbjRrXT7h72WSOQXkbsAFAIxtdfX3rrfhv4lvPGHgfSdev44Irq9iMkiQKQgO4jgEk9vU18h/ErSviLoGm6TYeOLi7mtpi89n9puROyNhQ67skggFcgnHp3r3rw942Pw+/Zw0rXo4lmuY7by7eN/utK0rAZ9hyT9KAPZ6K+MLS9+MHjXSNT8Z2ut61JZaeWaaSG+MCrtXc2yNWAwqkE4H5mvbP2dfitqfj7Tr7StdkFxqOnBHW52hTPExI+YDjcpGM9wR3yaAPY6KbJIkMbySNtRAWY+gFfImofED4j/ABq8ZTad4Wvr2ztlDyQWlrc/Z1jhUgbpGBGTyOpPJwKAPr2ivmD4OfFXxf4e+IEfgfxfd3N5FNO1mRdv5kttPztw/JZScDBJHIIx3p/tG+LfEGhfE8RaZrWo2kKWkEghhuXSMtluqggHOOaAPquuJ+MPjbUfh94IuNd0uG0muopoowl0rMmGbB4VlP6183+N7v4yeBbuw8Q6/ruqW0l8d8fl3e6ONgM+W0Q+Qcfw4x16816V8UPFcnjf9m201+ZFWe7eDzggwvmJKUfA7DcpxQB3PwO+Imq/Evwnd6xrFvZQXEN+9qq2iMqFBHGwJDMxzlz39K53w78Qviff/E/+w9S8LS2/h37bcRfbTpk6Dyl37G8wnbzheehzx1qD9kr/AJJxqX/YYl/9EQVyPgv4meL9R+PP/CP3eu3U2lf2neQ/ZmC7diCXaOmeNo/KgD6aor5Y/ab8T69o/wARILbTdb1OxgOnROYra6eNSxeTnCkDPA/KsHxxd/GPwkdP8Va9rmp2o1Bt0Qhuz5cTY3CNogdq8Z4wRwc96APsWivJl+M81t8DLfx1cW8b6nIn2dYsYR7kOY92P7vyl8DtxXjOm2/xg8c6Lc+NbfxVdpDEXZIhqJgaQJ97y4lwoHBGOM470AfX9FeN/s7fFnUfH1he6Rrsgn1PT1WRbkKAZ4icfMBxuBxz3BHfNWLX9oaxuviK3goaDcrMNSfTvtJnXblXKbtuM44zigD1yiiigAooooAKKKKACiiigD5b1TUAkX2K3ZvKUESEfxH0HtWBEv8AaV15R4gh+aTA49h/n2qO/u2hQKgLSudqAepq9Bb/AGG1SAZ81/mkJ65P/wCuvlp1HUldn7/CmqceSO5Y5u59qjCLxj0rThj8tQBUNnAIox6nk066uPJTap+c9K3guVczOao+Z8sdhl1d7MxxkZ/iPpWY0hc5/h7ZpZXz8oznuaZyzYFYTm5M6qVNRQ+CMzSgdhyTWgkqgEp91OB7mqMzmDZaxHM0nLey1o2duu5R1SL/AMeb/wCtVQ00Mq0la7BYXKpFjnqfqetLdTAYjjPyjgYqa5mEKYX/AFjDr6D1qnbx+dcKrHCjlj6AVb7IwjqueWxNMwht44F4Z/nY/nivYvgvYiDw7dXZBDXFyRk+igD+ea8QSZ7hzKy4aZyVX0XsPyxX034X0saL4esLDA3RQrvx3Y8t+pNduBjed+x8txfX9lg40us3+Wr/ABsXdQVGtW8xSygjocY565qWBt8Mb7Su5QcHqOKfRXrn5oYPirwovicWwN9NaGAtzGitu3Y9fpWEPhVAo41q9J9Sq13dFBLgnqzyy8+CkF/cmd/E87hzwrQI2cds59jUifBC3QYXWnU+qW4U/o1do/huyZ3b+y7E5ctnkZJJOfrz/Ote2iW3t4oUQIsaBAqnIUAYwKwpV1UbXK16poHRijm/CXgtvC9pfWz6nJepd4xvTb5fBB7nOc/pVY+AGI5vkP1h/wDr12JorZxTLi+XRHAz/DBZfv3luc+sJ/xrlr34Ha4b6WSw8QWCWrHKxy2zlk9shumc49q9W1XSoNRlt3ntEnMJJUmQrtyVz069P0qbTbNLGAwxwLAmdwUOWGSBnr71yuVOU/Z2d/R2+/Y0U5JXucH4G+Gus+Ftcj1C81WyuYljdGSKJlY5HufXFcB45/Zu8R+JdW1S6sNd0iC3vbuW4VJopNyq7ltpxxxnFfQ1A6Vt7GNrAq007o+XV/ZW8YxqgTX9ALLzykw/pVWT9k/xoJWePWfD2N25fmmBH/jlfUWp25urRodkjhiM7JTGwxyMMOnIFR6XafYY3hWOZE3bh5kxkPpgE8gYA/OsL0lU9lZ39Hb77W/E1+sVLX0PFfhZ8E/GHgrxnYazqt5o0ttAsqTfZpJC7Bo2AwCoH3tuefWveKKB0rqjBRVkYVKjm7yCisS50LbLviutVKsSTGl2Qo/A/U06z0eRZUdr3VUEe07JLgMrY7Hjnpz9ay+sw9p7LW/o7ffa34i5Xa5s18Z+PSnh39pF7ojbHFrVrdt24Jjc/wAzX2ZXxp+09aNY/Fy6nBKm6tLe4U/RTHn8463JPsuiqulXy6nplnfIMLcwpMB7MoP9atUAFFFFABRRRQAUUUUAFFFFAHy3+13G48U6FKVIRrF1DdiRIcj9R+dd/wCINT0z4ifs96laaBeC9lstNt/PSNWDI8IjkZMEdcIelejeMvAnh/x9p6WHiCwW6jibfE4YpJEe5VhyM9x0NVvAXw40P4cWN1ZaGLnybqUSyCeTed2MccDjFAHyH8NvDPgPxJDeJ4s8T3GhXUTBocKvlypjnkg/MD29xjvXsHwP+H3w/l8VjxD4V8U6hqNzo7yKbe4iWPerxsm/GAdvznB9RzXYeIf2avAGv3sl2lte6W8jbnSwmCIT3wrKwUewxXU+B/hd4W+HiSnQtP8ALuJhtkuZnMkrj03HoPYYFAHy5pGpw/DL9oGa+11ZI7ey1O6ErBCxEcquqyYHJG2RW45x2r6f8HfFnwh491G60/QdU+0XFsofbJE0RlTuyBgCQDweOPoQTF48+EPhP4ius+s2Ukd6ibFvLV/LlC9gTghsdtwOKo+BfgT4N8Aaimp6fBd3eoRgiO5vZQ7R5GDtChVBwcZxn35NAHz/AOGP+Tn5v+xivf8A0OWn/tIF9N+Mf2yRCU8i1nUdNyrx/NSK9/svgh4TsfGjeMYf7Q/tRruS9OZwY/Mckt8uOnzHjNavjr4X+GPiLHCNesWkmtwRFcQuY5UB6jI6j2OaAPn39o/4m+GvHdjoFt4fvTeGEyTzN5bJ5W4KFU7gPm4OcdMe9bviXTp7/wDZR0d4EZ/svlTyBRkhBK6k/Qbs13J/Zk+Hv2FbQWuoBg+9p/tP7xuMbScYA56AD36V6BoHhXTPDvhu38OWsbTadBE0IjuMPvQkkhuMEcntQB82fCz4t+GPC3wg1zw/qdzLHqj/AGn7PAsTsJ/MjAXDAbV5znJHrzV39kPTp21rxBqOxhbpbRwb8cF2bdgH1AX9RXoOofsvfD++1E3caapZxltxtbe5HlH2+ZSwH0YV6P4Z8L6P4P0mLSdDsY7OzjJIRcksx6sxPLE+poAualbNeaddWyHDTQvGCfUqRXx18BfF+lfDbx/e3HieWWwhaylsnYxM5il8yNsMqgn/AJZkcDrX2dXnfjf4C+C/HeoPqd7b3Vlfy4824sZRGZT6srBlJ98ZNAHz1pt7F8Qf2i7TU9HEj2s2sxXcbMhBMUJDFiOwIjJ56Zqf9qT/AJKk3/XhB/7NX0l4D+FHhX4ciR9Esn+1Srsku7h/MlZfTPAA9lAz+ArP8bfBDwn4+1s6zrP9ofajEsX7icIu1c44wfWgDhf2u/8AkVNC/wCv9v8A0Wa52+jZ/wBkLTmVSQlwWY+g+2yDP5kV7p49+HOifEextrLXPtXlW0plTyJNh3EY54ParGh+BdD0HwgnhGK2NzpCJJGYbo+ZvV3Z2B455Y/pQB45+yn4t0S08O3HhmfUI49Yu9SlngtSrbpE8iPkHGP+Wb9+1cD8Pf8Ak5j/ALjF/wDymr37wz8CPBnhDxNbeItHgvYLu13+UjXBeMbkZDwck8Me9P0n4IeFNG8Zf8Jda/2h/af2iW5+ecGPfJu3fLjp8x70AeC/tW/8lMt/+wXD/wCjJK9B/aq/5JxoH/X/AB/+iJK7zxz8FPCvxC1lNX1r7f8AaUhWAeROEXaCSOMHn5jWr44+HOifEHSLXSdZ+1fZrWUTR+RJsbcFK8nB7E0AfPmoaRNqf7KOlTwqzDT9Se6cKM/L5ssZP4eYDXJeAvCXw117QJLvxL4xu9F1GBmElv5YKuvVWTgluO3XI6dK+uvDHgjR/CnhdPDNnC82mKJFMV0RJvVySwbjBB3HjFcFqX7L/wAPr+8+0xR6pYqW3GC2uR5Z9vnViB9CKAM79n7wL4NsLm48V+FPEF9qXmQPYywXKKjQ5dWyyjkE7BjsQaw7DWvhU3xma1g8MayviT+2pUN4bg+T9p81gz7fM+6Wycbfwr2jwd4D8PeArBrLw/p6WqSENLISXklPqzHk+w6DPArnIPgV4StvGR8XR/2h/aZvWv8AmceX5rOWPy46ZJ4zQB6HRRRQAUUUUAFFFFABRRRQB8b6agurx9QkyYbc7IQejN3P+fStawjNxMZW5A9aqvClukdnBnZENv1Pc1r20QhiWPvjJNfLU43dux+/VJWjfqyaSZYY9xrKmmPLtyzdBUl3cCRyc4ROlVFBlcs3HoPQVVSd3ZCo0rK7DoOTz3NSLLFaW8l3LkIvT39KjAMkoRe5qnIf7X1JbWMn7Ha8uezNUR7l1ZWVu5f0iCWXN5Nnz5ydoP8ACP8A9VbTOltD/sjgDuaiiQRruIC4GMf3R6VWMpu5d2SIx0H9a1WiOVrnfkgJZ8u55amyyqqJagkSXP3sdVjH3j+PT8TUV/exWcbSucIg6DvVCCaUWcl/cA+fdfLGD/DH2FGw5O7UPmdR4G0r/hI/Ftpa+XugWQM47BFOW/lj8a+mAyg7QRkDpnoK8X+BOmeQ19qO1ZZURYhECN3zck8/QD8629R0mAfEK8mPiS2trm7sJN9oQfMC+WBgt02jaWx14z6mvUwidOi521fy9PvPzTjDGxq45UZSSUbJX6ttXt52d7dbWPTty8cjnp70teU2/hK98T/8I7q+j6/FJDps7b9jNgDeGO33wMHPYivVq6cNVlVpxnOPK2lpe583iaCozcL3av0t+YViyyuk0gEusYVv4YQVP045HB/P6VtVXnsxcSLIZ7iPbxtjkKg/UV0HOUPNk6CbVD0GRAPXr0/zmmLPLwBLq/P963H89vvTzbyfNHt1TCZw/nj5sZA798frS29s9y5SRdTtwq5DNOMNnnHBPIyR+FO3UTfQuaezNA26S4kIbGZ49h7ew4qLUN8TLIJ70KSflgjD9h14J7frVyKPyowm93x/E5yTUN1ZC7C5nuItoI/cyFc59aQzPWedkKifUwQcAm2GTwT6e459hSPcXGDi61BT6fZASP0q3LppET7bu/JxkBZuc+2ar2ttNPP+8GqW4QKwLzqVbocYBPuPwppdRN9CSzknluVBursqFJKy2wQHB9cdef0qzfXHkRhcXAZzw0MRcjGPY0yDTPIlWT7beyY/hklyp/Cp7m2+1R+WZpouc7om2n86QzLN3OmQbq/JIz/x5/d7+nv+lAu7gFP9LvGyD/y5eoPXjt/Srp0wHH+mXv3QP9aeff61BHZyXMsyyPqNuqFQreeMOB3GOe3f1p2FcW1vykgWaW6m3naubVlAPrnFS6jM8LRFJ5Ygc5CQGQN064HHX+dSLYBVRRc3R2uHyZOTjsfUVNND50ZTzJE5zlDg0hmV9tmAGby4+7n/AI8m7Dk9Pbp70ourgo2b+XIJyfsTdsVabS927/Tr4bsdJen04pw03BU/bLz5W3cyZz7HjkUAQ2l1K10sUlzJJkYwbVkBOOTu6V80/tf6YIvFWg6oBzc2D25P/XOQsP8A0aa+nbfT/s85m+1XcmQRskk3Lyc9PbpXgf7YNkW0jw3fBfljuJoCfdlVgP8Axw03boJN9T1/4XXo1D4ceGbgMGLabbhiP7wQAj8wa6ivMf2bb0Xnwg0dNxZrZ7iFiT/02dh+jCvTqQwooooAKKKKACiiigAooooAKKKKACiiigAooooAKKKKACiuI174ow2WvzeHNA0PUvEmrWyB7mKy2rFa56CSRiApPpzV7wh47/4Se+vdLu9C1bRdSsVV5re8iBUq3RkkXKsOvfsfQ0AdTRXBal8VlbXr3Q/DPhzVPEt3p5C3klqUjggf+4ZHIBYc8D0x2ONTwV8QtO8aPfWkdreabqunOEvNOvUCTQk9DwSCp7Ef1FAHU0V5/rvxgsdE8ZXPhGPRNV1HVI4o5IYrNA5nLAHHJAUAHJLEDin6P8V1l8S2vhvxF4c1Tw3qF8GNmboo8NyR1VZEJG7px747jIBu+LvG2neDP7J/tCG7l/tS/j0+H7OqttkfOC2WGF45xk+1dBXkX7Rd/BpWn+D9Qu3KW9r4itp5WAJ2ooYk4HJ4BrTv/jJd6TbLq2o+AvEtpoTYJv3WMtGpPDvEGLKvTrQB6VRVW01OyvtMi1S3uY5LKaEXCTg/KYyNwbPpjmuCT4wz6nFNqHh7wVr+taNCzKdQhEaCbacExIzbpBwegFAHo9FZHhTxXpXjPRYdY0ecy20pKkOu143BwUZezD0/pXN6p8VUGu3eheGfD2p+Jr6x+W7a0KRwW7/3GlcgbuDwP5g4AO7ormvB3jePxa1/bSaPqukX2nSLHc219DjaWGQVcZVgRzwc+2CCcBfivqupSTS6B8P/ABBqdhDK0TXUhjtt5U4JRJCGbkHsDxjigD0Siua8D+PdM8d2dzLZRXVpd2UvkXljeR7J7aT0Ye+Dg+x7giuloAKK4fWviTe2+u3eiaD4O1rXbmx2i4lQLBAjMNwUPIRuOCDwO9T+EfiXaeJtZudAvdL1DQtcto/OaxvkAMkecb0YEhlyaAOxooooAKKKKACiiigAooooA+TdMg3MZX7dM1YvZwi+Wp+Zup9BQWFnbAdwOPc1kzTGVyC2SeW+npXy7lyR5ep+/Ri6k+Z7CljM2B90dPc1I7CNevJpsZ2gsewqAzRu7yStiGEb3PpiskbysvQj1K9awtAsWftd18sYHVR3NaWiacthaoh5Y/MxPc1kaPE+rX8mrXCkJnEKnoBW1e3fkxhU+8elaLQ4ruXvPr+Q67uDNJ9njPTG7B/Snyyx2duWdgoUck1nxTxWMYkkJaU9EXkmmi1n1R1kujtiBysI/rTi+pbjZWRRiSTXZzcSgpZxnpnG+rvz6lqSQRoSqEDaPXsKS/vFhh2w4CKdq4/ib1+grQ8MaxZ+Dbq21fULNr1o3DiAPtLt/Dk4OADz07U219p6EKE4pumuaX5vovL9D6C8HeAYvCw+1Q3MjXMkCIyv9xSMlhj3JNPvvh1p2o+I49euJZftHlNHLGuAkuVK5Pf7rEfgK85P7UEHbwtJ+N8P/jdMb9qD+74V/O+/+1168swwrSUpXtbo+m3Q/M8XwbneMqe1r0byunfmjo1s/i6HrXhLwpa+ENPlsrSWWRJZjMWkOTkgD+QA/CtyvBT+1BN28Kp+N8f/AI3XefCz4oP8SBqYfS1sGsfKwFm8zeH3/wCyMY2frV0MZh5NUqb/AAZhmfDebYenPGYyGnV80Xu7dH3Z3xrzP4zzXlqmky2s91CpMquYXZRn5SM4/GvTKDzXTVp+0g4nxmZYJ4zDSw6ly3tr2s0/I+bptVmLfub/AFrbtXh5WJ3bRu79M5x7YqM6ldlflvtWLY7yNjP519KYHp+lLgVzfU13/D/gnyUuDKjd/rL/APAf/tjivhJeXF34WcXEkrtFdOimQknGFPU+5NdVqts97pV5axMUkmgeNWBwQSpAOfxqw8scWPMdU3HaNxxk+lP/ADrqhFKKj2Pr8Jg3QwscPOXNZWvtf8z5njiupIT50GsPMWBVlL7QuDkEEdc45z2PrwCyuj/y660fTAavpiiuJYCytzfgfIPgeD3rP7v+CeP/AAfjvrbxLdJPDfRwSWjY85WxuDrjrxnBNewdzRRXXQpeyhy3ufU5VlywGHVBS5tW/vPn7xDouor4l1jOmaxLG1zKYWhDgDMmQemCNufzBrOGh6of+YRrx9Pkf/CvpEuo6sB+NNM8Q6yoP+BCuV4CLbd/wR85V4Mo1JubqvXyR458LbLVdN8XI02nanDbzQSRM9xG+1ejck8dV/WvZu9Vn1CzRSzXUAAGT+8HSlt762uoPtEM8bxdN4bgfX0rejCNL93fXc+jynLFgMP7KMnJX39eh4RrnhrVxr2r40XWriNrmUwSRK+3HmZB6fMCufzB7Vnjwzref+Rf17H+4/8AhX0Sb22H/LxD/wB9ikN/ZjrdW4/7aCsHl8L3u/uX+R89V4MoVJOTqPU8z+EGn6vpeqajFfabf2sE0KsrXCMBuVuBk98MfyrO/atsPtfwtW4x/wAeWpQTH2yHj/8AalesS6xp8CF3vICB2Vwx/ADmuH+OEMGvfB3xAYHWWNYFnBHrHIrH8QVP5V0UYwpL2Keq189z6XLMu+o4ZUYtuKb19dbHJ/sk3/n+ANRsyebbUWOPZo0P8wa9wr5u/Y7vht8UWDOM5tpkX1/1gY/+g/nX0jW53BRRRQAUUUUAFFFFABRRRQAUUUUAFFFFABRRRQAUUUUAeXfAFVk0TxJdygG/n8QXhujnLBwV4P0B/X3r1HHNedX3w/8AEvh7xDqWueAdW021Gqt515peqQu1s8//AD0VkO5Se+Op59ANrwdovi+0vb3UvFniC1vZblESOwsYSlrbbc8qW+Yk56n8c8YAOX/ZwBf4ey3UyKt7c6ndS3eOpl3AHPvgCkmBg/aWg+zgAXHhjNxjvidsE+/yoKsf8K/8XeD9Y1W98Aaro6WOq3Bu59M1iKQxRTN9942jORnjjpwB9NbwP4AvdE1vUfFHiLVE1bxDqKLC8sUflw20IORFGOu3IBJPXA75JAMHQIkb9orxRIUUuujW4ViOQCUz/IflTfjyoWXwJKBiRPE1oFcdVzk8H8B+VdNpngq7sfidrPi57mBrW/sYrVIRnerJtyTxjHBpPiP4Iu/Gv/CPfZbqC3/srV4NRk80H50TOVGO5zQBzPx+jWVPBEbqGRvE1orKRkEHdxXfeNIkn8Ha7HKiuj6fcBlYZBHltWP8R/BF341/4R77LdQW/wDZWrwajJ5oPzomcqMdzmuk1ywfVNF1CwjZUe6tpYFZugLKQCfbmgDyCyubmH9lUywMxl/siRM55CFyrfkpNbfg27+Itv4R0SLTNB8KNYrYwfZ2/tGUbo/LG0nERGSOep610/g3wSuh/Dyz8IauYb1EtXtbjZnZKrFsjnno1cxpXgz4l+C7JNE8M+IPD9/o8TFbY6xBL9otYieEBjOH29s/oMCgDR+F/hPxF4Xl8T3OsxadEdWv2v4baymZ443YfOMsq9SFrP8A2cAr/DC3un5u7q8uZbpz955fMIJb3wFrtPCGjaxoultDruvS63fSzNM87RLEke7+BFHRR2yT17DgcRqfhPXfhxd6prPhHxJoGnaRfzfaJ7DxBuW1hnc4LJIpBUMSPl9cewAB6ZfXlvptlcX11IsVvbxtNLIeiooySfoBXn+i+OPHPjDT01jw94U0qDSbgk2r6nfsk0yZ+/sRGCg+hNa/h7wr4gmsNZi8aa7Fq41dDE1paw+XbW0ZQqyx5+Y5B5JP65J5zQvCHxS8G2EGgaFrfha90e3ykE+pW8wuYY8nC4jO1sZ7mgCh8IpNTf4r/EU6vBa21832EzRWsheIHy2xgkAnj1HUmvYq89+HPw51nwh4o8Sa5rGtQ6tLrXkMZFiMbBkDbsr0Ay2AATgAV6FQB53B8Q/EXinVdUtfBXh+xu7HS7lrOfUNRvDCks6/eRFVGJxkfMeDkVzMM/iOX4/+HX8RWWm2dw2k3CoLC4eVXQbj8xZVPXPFbMPgLxx4K1TVpfAep+H5NN1W8a+ex1mKXEErj5yjx8kHA4PYD6mTR/hv4pPxI0/xr4g16wvpILSS2e3t4GiSIENhYwScjLEkscnPsKAPTaKKKACiiigAooooAKKKKAPkPULwSNheQOB7mq0S4GSfqaigHntvP3APlzT55Qqkdq+Qbbd2f0PFKK0G3Nx8u1c5Y4GKzbxX1C8j0aAnarCS5cHjPp+H+elLdXhs7dr3blyfLgU92Pf8KXTvL0WJbYvG2oXA8yXc/wBwds1cU9zjrVFKXJ06/ovn+Rv74LC1ABWOGJcAE1mpHcam/nsxihI4C/eI7fSnx2ouWU3LNKy/3uAPoKvhxGu1AB2qkaezcnd7DLe0jt8YGW7seSfxp00+EZEO0EfMfQd6T5n4HSqM5a9uPskPKAgyMD19qaZckkrEul2kmq3iyBGMYIWJPU5wKy/El0ZtReAH5bcmMjtuB5P9Pwr2j4MeGra+1aW7kEZj05VKxnnLtnB+g2n8a8W8VQfZfE+sQdPKvZ06Y6SEUsTTlGnGT6meTY2nWxtXDx1cEm35v/L9TOgha4mjhQqGkYICzBRknHJPAHvXqnxA8GaL4G8Fw2mXXVZJFifeMm6cEM0qHp5YBAGMEbsHkmvL7G2F5eQ25cxiRwpcKW2jucDk49q7bU/DNzq4gW48RX2oCyiS3iD6fP8Auk3YCjI4wNxx/s4+mND4JaXbO/NG/rFFyqOMIu7STd+2qTVr9H69Dg69j/Zmvmj8T6tY5+WayEx+qOoH/ow1466PE7RyKyupKspGCCOxr0v9nm48j4iJH0860mj/AJN/7LVYF8teHqZ8U01VynEL+7f7tf0PqE9K+X/F/izxNZ+LNZtofEWrxQxX0yoiXbhUXecADPAAr6gr5d+KOnm2+IWsxIvDTLLx/torH9Wr7jCpOTTP5Q4nlOFGE4u2v6f8AzB4v8SN97xFrDfW8k/xoPiTxBIQP7b1Uk/9PUn+NVEtFiXdOwUelUtS8Q2elwtIZI4Yxxvc4z9PWu9xilqfDxr1qsuWm238z0LwjrlyYZ7XUbuW4kmJPmXVyWKLtIwu48HJ5xzXp2sXEtx4Q0a7S7dwyqPNjlP7wFeCSOpwK+T5dU1XWj/osbWkB/5eLlfnYf7Ef9W/KvpHwqkk3wR0cPNLPJattMj8scSuozj2Ir56vl0adepi4yfvW06f1ofo+QZpUlRp5fWSvC7ut9+vTr690uuXeWMl1z9suw3tcP8A41mNp11Exxe3f4zv/jWkRc5+RW/KmSW+psMo5B9NtcT1Pq0zOlum06PzLi/uCR0UzNz+tdRpt4/iT4R+Ikmd827SONjHcAgSQc/hXI3lvKz7rvQxdOP+WgQg/mK7T4eD7d4d8T6cNPks1MHAYk7t8brx/wB8itcNK1RIxxcb0WeS2D6ZcgRTpfyTL0dJWH8+Ksi2VFkhkaZn2kbnG4HPY57dQaiESWiIoOF6kjr+P1qrdanJcITv2woPvEHkV7Ku3ofGzlGnH95v5f1+JasLrRNC1SDUI9PhWaJz86MxVCQQSB7Z7dMV6/4Tv7TXvC3iH7PdJdOI1lkKqcFwhIPPrsH5V4nIsVnp32u4iV55DiJWP3P89zXpHwCvVuh4g0+SRWaa3jdVU9AC6t/6GtclbB06leOKbfNFW30fy8rs7sBjatKDwiiuWbvtqtO/nZaalNp7uF9wMci/3XUAVatNQtbz5QiJJ/dIHP0NYWsTStKyFiFXjHrWbbXYZtjEqyng+hr0HC6uCqWZ3Hz25Z4GWJyMb9mcV009sNU+EXiW2iy7zWV6ACMfOYyR+pB/GvP7TV5B+7mOT6nvXp3w2ngv9H1GybDr5mXX/ZdcY/8AHTXm1MDT9v8AWftWt5Hp0cZP2f1f7N7+Z8+/slXnlfES9g3HbcaZIAM9SJIz/LNfXNfGH7OHmaN8ZrDTpTiQpdWr/VY2J/VK+z60LCiiigAooooAKKKKACiiigAooooAKKKKACiiigAooooAKKKKACiiigAqK8vLfT7Sa8u547e3gRpJZZG2qigZLEnoAKlrzP463893oul+DLCUpfeJ76OzyvVIAQ0r/QDaD7E0Aei2F/aapZw3tjcxXVrOu+OaJgyOvqCOtQ6vrWm6BZNfatfW1jaqQpmuJAiAnoMmvPfgnI+gnxF4AuXYyeHr5vs28nLWkuXjP6nOPUVD+01/ySe9/wCvm3/9DoA6tfir4DZgo8Y6DknHN7GP610trd299AlxaTxXEEgykkThlYeoI4Nc+3wy8DOpU+DfDgBGONNhB/MLXBeHdIi+F3xmi8N6RI8Xh/xJZSXMVk8hZYLmPJbZnoCq/rj+EUAerXWtabZahaadc31tDe3u77NA8gDzbRlto6nA64rk/iXoum6pP4eudf8AEVrpWj2OopO9rOoVb6cAmNC5YAAYY7cHPPpWF8Qv+S1/DT/t/wD/AEUKqftO2I1TwfoFgZDGLrxBbQ78Z27o5hnHfrQB7BVK81rTdOvbOxvL+2t7q+LLawySBXnK43BAeuMjOPWuA+D3ivUB9t8BeJ32+IdAxGHY5N5a8BJgT14Kg/VSeScVfil/yVj4W/8AX1ff+gRUAerVSbW9MTV00Zr+2GpPF562hkHmtHkjcF64yDz7VdJAGScAd6+Zry+vbnXrz42xSytYWGux2MaAkq2nKDE7jHXcXH47utAH0zVE65pa6wNFOoWw1NovPFoZB5pj6btvXHvVyORJo1kjYMjgMrDoQehrywgH9pgZHTwxx/3/AKAPVaKKKACiiigAooooAKKKKAPjlyIkCJ1xzVE7rudYU4yeT6DuakvHMEAL8u1Z91JKlullACbu9BBOfuR//Xr5CKuf0DXqKK/r7hYpI72+a/dc2dmPLt1J++3r/Wua1iWV9dWaVmIkyXYdj2FdFM0cMCQwH91GMLgY3Hu1c3qf7xie/wDWuuitdT5/MW3BJPZ39X/Whv6fq0+nLE0rNNak7WOOUPrXWReXKqup3KwyCOhFef8Ahy/Erm0nUMSMEHoRXYWQ/sxktss1tKC0DsfusOqH+YrOceV2PRwGJ9pBO+n5MuX1z5KeXHjc3HFJbLDpWnzXtwwVI1Ls3fH+NMgia5uMnkE1qfEXw8Yfg3c6yD9/UIYxjsgJU/mzD/vkVrhaXtaiT2Mc9x/9n4WVVfFsvV/1f5HQ/sqeI5Na8Q+MPOYgyJbSxRk/dQNIMD6ZH51xPxUsG074ieIIGBBa8efn0k/eD/0Kpf2R7swfE29ty2EuNIlGPVlliI/TdWp8e7fyfiZqMn/PeKCT/wAhqv8A7LXZm8F7GLXR/ofLeHeIk8yqxk/ii38+Zf5s4XTbpbLULe5fztsUgZvKfY+O+D2NddJ49sWL5g12cMQwEurONrD7p4HPXv6cYya4ivpPTvBPhWHRNMu38I2l01zaxTEo25jlMk4L59TnFeThKc6l1B2sfoPEONwuD9nPEQcnK6VnbbXuj50v7iO7v7m4ijeOOWRnVHcuygnOCx6n3rs/gjceR8TdHycCQyoefWJ/64rA8b6fHpfivU7aGAW8XneYkIGBErgOFA9gwH4VJ8P7prLxz4fnVtuNQgDH/ZLgH9CazpNwrK/R/qd+NjHE5ZUUNpU3b5x0Ps6vm74/alD4d8aSzTSRxLc2sU/mOceqYHr9yvpGvnr9pHQ7abxTo2qPBG85s2hV2XJUK5bj0+/X3GGbU9D+UOIKNOphb1Vomn+n6nis+s6rrGTZRG3ib/l5ulOSPVI+p/HFOstDghmFzMXu7r/nvP8AMw/3R0UfStUQc08Jiu/k6s+LeJ5Y8lJcq8v1f9LyGpEFr3bwDeSP8FtQMY+ezkmx74Kyf1rw4CvbPglKt94H8RaSU3ssjSY9RJEFA/OM1ji43pM9Lh2ry46N3vf/AD/Q4tvEer3RxG7D/dFKE8QXJyJJvxbFdhb6WkS/JCAPZae9nNN8kUbgd2C9K+Y5G92fqfOuiOVg0nWpH51F0b0EhNej/CywvLG9vo7y+e5E0KkKxJxg/wD2VZUFgbdNqxMPUkda2/CNx9n19EchRJG68kdhn+lbUYKMkzKrJuLR4xqkDWV1cW0reWYZnRFlYMZApI3cdBx3qighZgHALJyFbn8vUVoePjHB4v1u2aeHAvJJEXcBwxLZB+hFct9vhiXEtzG4U5B8xdyD16817CffQ+Oqx19zVrvt/wAB/wBeZragVu1KsgC9go6fSui/Z+SXTfiTLH5rNBc2EsYVucEMjcf98niuO/tixwBJqFr04YSjn9a3fhr4x8P6D460++vtasbe2xKkk0kwCoDG2Mn64FTKy0Rrh+ZzUpX37HRaxY3C394GUlEuJIgx4yVYg4/KsN9PmMmY0csDnaFJrb8TfEnwS+vXzL4lsLq2klMiSRzFx83PGBjgk1iXHxL8KWkqzWXiW2kI6p5b5/MCt41NNzplRd9iPULjU9MtlkeylHICmRcBj6V7H8ILhjHeQ+XtXZG27++/O4j25A+mK8Nuvi3oF1IGvZ5b4I2Y4gm1AfUnGT+FdV4R/aC8GaDfGe/vLx1aFoyltYSbEOVIA7noeaipJNGtGEoyvZnnOmXD+G/2jUMZ2bPEjQE9MJJOUb/x1jX2tXwj458XaTrXxZuvFWhmcafNeW93H50ZjcMqx78qenzqx/Gvu1GDorDowyK5juFooooAKKKKACiiigAooooAKKKKACiiigAooooAKKKKACiiigAooooAK8Ug8W6Bq/x31TU9Z13SrCy8MWn9n2S3l1HF5lw+fNddxHK/Ohx7dK9e1y7urDRr66sLR7y7hgd4LdOssgB2r+JxXnvwv+E2k2Xg20fxb4d0vUNeu3kur2W+tI5pQ7sTtLMD0GM9s59aAMPxB4v8O6X8Z/DPiLRvEGk38Grwto2oJaXaSlCWBichScfMVGTwAta37TX/ACSe9/6+bf8A9Dq38SvhBoGr+CdUt/D3hvSbHWEj860ls7OKGUyIQwUMoGN2NvXvWf8AFLSfE3jf4K29quj3Da7N9me4sxgMsikb++MZBI56YoA9aryvxehl/aA8A7MMYbO+kcZ+6pidQfzOKtN8TPGxUiL4Uaw0h4UPfRKpPuccD3o8B+EPE174wu/HnjZLa11KS2FlY6dbyb1s4c7juYcFifQnqfUAAFT4hf8AJa/hp/2//wDooUn7Q/8AyA/Cn/Yz2f8A6BLWl418ParqPxW8B6taWUk1hp32z7VOuNsO+MBc/U0nxs8O6r4j0nw7DpNlJdyWuv2t1MqYykSrIGY57DI/OgCD4w+FNQH2Lx74YTb4h0DMhRRk3lryXhIHXgsR9WA5IxzfiDxZp/jfxr8Ide0xiYLme+JRvvROEiDI3uDx+te4V4PdfB/VPDvxr0PWNDtZJfDT3cl7JGjDZYzOuJPl7BsIRj0x/CKAO9+N3i3/AIQ74capdxSiO7ul+xWvzAHzJOMj3Vdzf8BrF0uf4eWvwsj8Dy+MvDARtONrK66jAB5rKSzj5v75LVa8c+FtQ8b/ABK8NWV7phm8LaVHLe3TzKGhuJyCqRlT1xgHkYwzCun/AOFaeB/+hM8N/wDgsh/+JoA534B+Jz4j+HVnBNNHLd6Q7abOyNuB8vGwg9wUK8jg81F/Z8v/AA0Z9r2yeV/wi2d+07d32rG3Prjmm+FfCN94I+LWsDStJEPhbW7OKYG3RUhtbmPI2BRjaCNx4HVhXW/25rn/AAmv9j/8I+/9i/ZvN/tbzePM/wCeezH65oA6CiiigAooooAKKKKACiiigD4hvb2K4uJrmQ4toM55+8eyj3NV4DIDLcT4F1cjc2P+WUeOF/Efp9ajVI5Zthw1nYsGfv50xHCj6f40+WUnc8jZdjuY+9fKpH7hOo5O/wDXr+i+ZDdSgDAxWHdyBj34rQupOTzWTcSHLc9K6KaPKxk+gmks66raiMjLyqn5mvXLeCGWF7adcxsR06qw6MPcV5r4I0w6h4hgkZSYoG8xvr2r0rBV2HTk1NZ+8dmUUn7GV+r/AK/Efa2UsE4gC7ppCFQj+LPAI+tep/Gvwyth8BL7SolBNlDBKxHdkdXY/jg1xnhKSybWdMk1FisNtcrIX9APX2zg/hXtHxO086z8PNfs4ypM1jIFJ5H3etejlsEk5HynG2KnJ06L21b83sv68z4u+Enj23+G3jW38Q3dpc3kEcMsTw25XewZcDG4gdcH8K6D4nfF/TPH/iJNXtNJv7NRbrC0c7ISSpY5G09MEflXIr4GuyPmv7YfRGNPHgaT+LUo/wAIj/jXoVsNGtHlmtD5LLszxGX1vb4WVpWtsnv6kR8VRDpaSn/gQFXh8UNbWNI0u9TVI0Eca/bWARQMAAdh7VB/whCKPm1Fz9Ih/jQPBtsPvX1wfoiiueOWUFtH8X/mevV4xzer8Vb/AMlh/wDIlefxjc3crTTwtLK33nklLMfqSKW08YXdldQ3UFtD5kMiyJuY4yDkfyq2vg+xHW5um/IU9fCunL1a5b/tpj+lUstoLXk/MylxZm8lyvEO3pFfkjvpv2tPiBL/AKvTvDsP0hlb+b1yniz41eLvGzW76u2mD7MGEf2e1K/exnOWOegqgvhrTB/yznP1lNPHh/TB/wAu7H6yGu2MZJ3R81VpQqx5KiuuzMdvFust/wAvMS/SFaYfFWsn/l9x9EUf0reGh6Yv/LlGfqSf609dI01eljB/3zV3qfzHMsuwi2pR+5HNN4l1g9dRmH0wP6Va07x/4r0YSjS/FGp2Imx5ggmC78Zxnjtk/nW6LKwTpa2w/wCAinCK0X7sVuP+ALSak92aww1Cm+aFNJ+SSObk8aeJ5hiTxNqzj0+1N/Sq769rUww2s6q49PtUn9DXYAR/wxR/gg/wp4Vz92GQ/wC7Gf8ACo9kjouzhjdalL9671N/rPKf603yL2Xqt859y5r0KO1vZeI7W7b6RN/hVuPw/r0/+q0fUpP92BjT5F3DU80Gl3rDiyuG+qH+tOGiX7dNOl/FRXqaeBvFsv3fDWrn3Nu1Tr8OfF7jP9gXiD1kAUfqaOSPcd2eUjw9qJ/5cWH1wKePDepH/l2QfVxXqh+HHicD57Szi/6630K/zamS+BtRtji61Lw9bcZ/eatAOP8Avqjlj3FqeZL4Y1I/wQD/ALainjwtqB6vbj/gef6V6G/h2yhYC48aeD7cn+/qaH+VRf2f4aj/ANb8RvCa/wC5JK/8lotELHCr4RvG63Vsv5mpB4On/iv4B9Eauvmn8C2ihp/iLprZOMW1ncSn/wBBqL+2vhkv3vHt+/8A1z0eT+uKPcCxy48Hkfev1/CP/wCvX3h4Wna68M6RO7bnlsoHJ9SYwa+M38U/DKBiB4h8QXOO6aYFz+b16hZ/tgeENNsbewsdF1u5S2iSFAI40yqqADkv7VMrdAPo+ivmu4/bU0tRiDwdqrMO0kqD+Wans/20NClXNx4W1SLHUpLGwA79SKkD6NorwqD9sLwCyqbmz1q2z/etgR+hrWs/2rPhbdEBtZuICf8AnraSDH6UAev0V51Z/tC/DC9KrH4usELHAEpKf+hAVtWXxX8CagcW3izR5D6C5X/GgDq6Ky7XxVoN6QLbWtOmP/TO4Rv5Gr8d3by8x3ET/wC64NAEtFIGDdCD9KWgAooooAKKKKACiiigAooooAKKKKACiiigAooooAKKKKACiiigAooooAKKKKACiiigAooooAKKKKACiiigAooooA+GisUESW8RzDAMBv8Ano/8T/4VVdvMZQven3Mi8RpwB/KiNfKQytjJFfL7H7W/edlsjKvCVJX3xWWUeeUIoyzHpV69lyScZZj8o9a1dI0WWJFuVVZT3A6r7Vo58iOCOHliKvKtup0Pg+0j0mFDgMz/AH8da6ye1Eq+ZHznnjvWBaqJFXC7WPat/TZsL5L/AIe1Z0HzXUup79WmqUVydCOyk8mXa4OP5V6Rofi+ePTV067kMkGNkcn3sL6H6dvyrz64gVG3jOKmtNTSD5Q4x3U5xXRRqOjI8fNsvhj6PLJf8BnJ6p4dntPEyaNGwiW6nEdrJLnbtY8ZPqB1+mehFa+kfDC/1+wj1HS9b0y+tJCyrLDuwSrFWHODwQRXUxX8czRTbIrpoGDx5CtJEQeMZ6j2NXNH8S/8I/pq2mkeG3FjGzkLbafIyBmYs3Kv1JYn8e1e9TxKqL3T8rx2WV8HK1Vad+hzifBXVPKMs2pwxgfwLGWf8AM1k3/gnTdJbbfal4hX1MPh+4lH5gYrtrj4xJZuUuNDkDjjy8SROfwIbFJH8ddPiIEmjXsbd/Luhx+aCqda3U5Y0KkldI8wu7v4e6Xn7dr3ikY650Jo/wD0JhWZP46+E9sxC3Pi+9A/ijtoYgfzevdrT4w6NqKnzbTVFHfzPKkH6uKJ/FXgPU/lvdLgl3cfv9Jjf9VzR7W/Up4aqvsv7jwZfiX8KlIC6N4yl/3rqBP8ahl+Lnw7iY/Z/BWtzgHg3Gqqufrtjr22fQvg5qAPn6DoKE9SdPlhP5qorKuPhL8D9TbKx2Nux4/c6lJFj8HOKOfzIdOa3T+48iHxp8IhsRfDSB1x1uNWkyfyWmTfG7TbbBi+GWgxg5wZLqd//Zq9Ruf2a/hfqP8Ax4a3dWxPTytRhl/RhWdc/shaPcD/AIl3i29A7eZaRyfqrCndkao84Px9u8kWngvwfb5+75ltLJj83x+dMl/aA8Uw/wCr0LwhGMZDRaSjAfiSa7C9/Y61uME2fimwl9BNayx/yzWHcfso/ECLKR3uhTRjp/pjL+hSkK5hv+0H44kUCG50iybP3odJt1x+O0n9Kry/Hn4nxj/kaJ4lPQxW8KD8MIK3F/Za8dqcTSaUg/2Jmf8AktWE/Zk8QQ4Nzq8UWOyW0jf4UAcpN8b/AIi3xxL421mM4wNkoUH/AL5xisy5+JPjyaRfP8Xa+56jZqEg/wDQWr0Jv2dmJzdeJJc99tgQP1arFv8As/6LEQZfEOoMw/55wov8yaAPJZfFniC5bEviDWNx7y3spH881Rl1DUbvcs11dXGeTulZvx5Ne5r8BPDBbdJqWszHuS8Yz/47VyH4I+C4hhrbUJT6tdYz+QFAHzwEiZiHYwkcYIzmhAzJ92JlXnBKg/4mvpKP4P8AgeP/AJgzufV7qQ/1q3D8M/BkAG3w3Zt/vs7fzagD5iYw43JuR/TsP6051Hl+YZYnLdRzuH6V9UQ+DPC1uAI/DGigju1qrH9c1eh0vTbf/U6VpkWP7llEP/ZaAPkhGQsFRpEDcMOv16Ve+xXU5Gy0uL4EcbYHBU/h1r60j+TiOOFP9yFF/kKvWslwWAE8q/RiKAPkmw8K6/NJ+70LXiDxmCzdj/Kta3+Fvjy8UCDwVrLjsxtGQn8xX2FpjzgjM8p+rmt5HZgMsT+NAHxlF8EfibJ/qfB2qxK33t8qLn8yMVftv2ePiVcAGTw9aw+015Gp/Rq+v8Z9aXaT2P5UAfJ8H7MHxEkGZDocJPXzL7dx6YANaMf7Kvi2ZV8/VvDcBHUJvbP1IWvqAROeiMfwpwtpj0if8qAPmdP2RtUfBm8W6bH6rFayMB+ZFXbX9ka3Vh9s8XTOueRBYY4+pevo4WNwf+WLflQ1nJGMyNHH/vOBQB4Hb/sneGYyDN4m1skf3LWNP6mtzTf2dfCumkeX4m8V7R/BHdiEH8lr1eW70+3/ANfq2mxY/v3KD+tVJfEnhyD/AFviTSR/u3Ct/LNA7M5XTvhPoemsrQeIvGRwQcHXZArfUADNdLpuhRaZjyNX16bHa41J5f51WuPHngy3GZfEEDD/AKZwyP8AyWsyf4reB4WP+m3cwH/POycZ/MCgR2yX14gAFxPgesjH+tSLrF8nS4f8cH+deeN8YPCIOIbPWJz/ALMar/N6YPi5ZOf9D8Ka9cemSuP0zQB6WuvXw6yA/VR/hUq+JLteqwn6qf8AGvNU+Imu3P8Ax5fDrU5M/wDPRpP6R1IPE3xGnP8Ao/w6SIdjKzn+e2gD0pfE0o6wxn6ZFSr4nB+9bfk//wBavN0m+Ll0P3XhrR7X/rpt4/OSpI9I+Mk5+aTQ7Yf7IT/4lqAPSU8Rwk/NBKPpg1MuuW7f8s5x9VH+NcRYeH/iZHg3OoeHpPUSecf/AEDbXR6bY+K4sfbX8PMO/lRTE/mzmgDoLe5jukLxkkA4OQRUtRwCVUAm8vd/sAgVJQAUUUUAFFFFABRRRQAUUUUAFFFFABRRRQAUUUUAFFFFABRRRQAUUUUAFFFFAHwhDH5j7jjAGWzUd/eIsbM3CgVFd3i2luqFsM5z9RRp9m2r6hFbSRsINpZjn8q+Z295n7Jzt/uobsr6REs12tzPtK9lPQCuutrRIJBJZTKY2+9Ex6fSrlv4Zs3sY4pFBkTIEoGDWdcadd6NIGALxHo45FYVLy949TCUVQXKzdtkR8Y+Vx2J61pKnQ9GFc9Z6mr4zjI7Gty0vYpkHr9a0oyjsdFeL+JbGlFIJk2uBuH61RvLMoxePp3FTF9vzA4pTdYGCu4eorplaSszjgpRd4mas7QsCpKsO9Fzrt3ao0lrPLbyuu1nhcoxH1GDipLlYZDlHVH/ALrcZrNuV4KsMYrkk3DY6/ZxqrVGbavvYoyna7Z3IdrBvXI5rf0vw6DKoM8pTG4l5DkD6Vi2MUsl2LaFWlaThUUZOa7q301rK2ikvZDG5VV8pT2Hqferw6c277I5sTGnTitFzPy1LUYiZRbW9qJivyjcgIHuSajvIdMsYSsttaSznriJRj26VXvtUeGHyYCII85Plj5m+prGO6aTzHYs3qa7J1+XSO5wU8vhU96aVvxZLIlpM24WkajsFLD+RoFlat0idf8Adlb+pNOQDtUg461mqk+rNpYHDPTkX3EDaZaP1Nx+Lqf5rSLo8APyzPH/ANslP8sVZLAd6QzKO9Wq8l1OeWVYaX2PzCO0uoebfV7iMj+6XT/0F6txaj4kh4h8RXIHvdTf1zVM3SjvTDd8cDH1qvrcl1OaXD2Fl9g1k8S+MIfu628vszo3/oSVOnjjxnEP9fDJ/vRQN/LFc+bzg81E13kdcUfX5IxfCeFl0/L/ACOrHxJ8UpxNYWU31tG/9lekb4m33/L14a06Qd8xSJ/Q1xr3YPQ1G17IuWDuo+uKX9py7Gb4Lw762/r1Oxb4kaO3/Hz4TtAfWO5K/wA0pB478IS/63QdQh/643aH+ZFcUdVmA+V7ls9hkD9acuoXJb5bWPp96VQx/Wqjmb6o5qnBNL7E/wA/+Cd0niTwXOMhNfg/4Aj/AMmqZdU8FN97VtXj9msj/QV5/suZxh44Mn/pin+FOGnlusMOf+uS/wCFWszf8pjLgdf8/P6+4786v4Dj+/rOrP7CzYf0qJvFfw+hOP8Aiez4/wBkJn8yK4oWTL92OEH/AK5r/hQ8E4H3tp9uP5UPMpfyhHgePWqdkPHXgpD+40HVpyP786D/ANmpy/EbSkP+ieCZHPYyXJ/oprgJVlxg3En/AH0aqSWk8hODIw9zWf8Aakuxv/qRSjvNs9Kf4qX0I/0bwfZxDsXmc/8AsoqvJ8XvEhO1NL0aA+jAk/q4rzhtOus7keVCP7hANVjp+oZ3G8nx/dLAj9aTzGo9mi1wjhY/FGT+49Il+KXjKT7k+kwf7luD/wCzGoP+Fi+MJjh9fjj9o4EH/tOvPG/tW3bMbW8qAfdfKn8xUsWuJEMXsUluw6kjcv5j+tZyx1fozspcNZWn78WvX/PY7w+K/ENz/rfFWoD2QBf5YqF9Q1SXlvEWrXA/utO6/kd9c3aajBdLmCeOT/dbNX47jFJY6q9GztXDWXpXjBM2LdbG9bbPqGptL3jnuDn9c5q3HoWjufntzIR/fbP+FYoSO5UCQdOh9Ker31jgo3nxDs3UD2NdEMbL7SIlkWEXwRSfmdBFoWkxjMdjDn6t/jVlbSwiOPsVv+KZ/nWFba8ThQQrHqj8H86vJqHmrh/l5710wxEZLRmMsrjB6wX3GskFiTkWlrn0MK4P4YrpdH13SLMol74c0h06GWG1jVx+GMH9K4lrry145B9KZ/axixkNj6Vft1HqclfJ6WIVpQT/ADPe9Hn0PUIRJpsdmQOqpGoZfqO1awAAwAAK+fLHWpYZUuLWZopV6OhwRXofhr4mxylbXWsI3QXKj5T/ALw7fXpW8K0WfJZhw3WoXnR95duv/B/rQ9AopsciTRrJG6ujDKspyCPUU6tj5oKKKKACiiigAooooAKKKKACiiigAooooAKKKKACiiigAooooAKKKKACiiigAooooAKKKKACiiigD891Lz3QuJ1BI+6vZavW97Jay+ZGfr61v6xocc0bXFuuJAMlR0NVfD2m6br1u6F5IblCQ2D/AEr5Vy5j9ojhalKfKpa7+ppaN4mUlUkYZPr3rp1T7REXt2V0P3o25Fcbc+DbqL5oXSVfVcg1JpuoanocoWRGaMHoaSly6PY9CMqjXvrXv/mbc+kWs7nZ/o03oT8pqnPa6jpjbihYDuK3ra7stciyjrHP/dbjNMc3NgfLkGU/usMinKlFrmW3c3hVe3XsZ9jrKSfJNujY9j0/Crn2g27Z3B42/Sh9MstSBeI+QwGXyPlFTDQDaxBp7keSOrMMcU1CpbT7xOpTTtLTyIZLi2ukMcqjnjB/oaauj29rmSa7niAH+oYh2b6Dt+NPe+s7VitnHgj/AJbMefw9KpXGoq/AHzZ5Oclj9amU49dWUoS6XSNe31aHT4QljBHbADDSkAytn361Wl1gyAFCzOerN1rFMjM2eQPbvU9ujO4IB9hU+2m9EVHD00721L4kedsuTVlBimRoEHPJp249q1jpuZyd9EShwBzimtPjoBULPjgkCoGkHrRKYo07lhpsnrTC3f8AnVJ7tE6HPrmoGv8AccKCaxdQ2VIvvKMVC1zjq2apNO7Drj2FQu0ijKp15y3NTzNl2jFF17nPQk/SmebluWUfjWdmYnDOxz2NIzODg4o5TJ4hLobESx9SN/1q0sioo/dKB7DNYCTOvALU9bph8u5ziqSaJdeEtzokuLcj505qeOe2bso+orlmvSh5Zm+gqJtYVWwXf8FrSM5djOcqfc7QTQEffQUgkif+P8lriP8AhIZ14jic+5xUTeLNSLbIo0Ln7oGWP5CtFOXY5pVaUdmzvQBJwsyqPpzUbWkJ/wBZcZ/GuKj1LxNcqCluFx3Me3P5mrUdl4nuwrO1ugJ56jH5U7p7ke2mvgi/wR1It7THyMGPsM0xms0BDM3uSwFYZ0t4Jv8ATdThzj7o3Z/RqpXMGmopMNs07/3pSyg/+PZpe6P2lfdx+9/5I6Rr3SgM+YhA4OGqpda7ocIH79CT2QbvzrFiTRzGqXOjRKT95o5Hz+HJrQh8O+HrlD5aBCez5z/OjQI1K0vhtf1f+Qz+09Lnf78pXuQAP51OU0a4UYlkwfUAj9Kjl8F6c6kLaxOvqjYP61TfwPpoTYgktm9VYqf8DUcqRt7Su90n8/8AgMkm8L6ZMfMtbuNX/FT+Bpw0vXLOMGDZdoOzHJx9R/WqsfgaeBdsOpy7OvzZP8jVi30TWbNdqXELdeSz5z+dNw/r+rk05yT+Dl9Gv0t+KFt/EL20oW7tp7Vs4JYZX8a6Ky1i3nUEsMH+JTlTXMre6raBor1kkyeGK71X6hufyIqKfan7+Sw2jP8Ax86dIRx7qaUZuOzNZar3l/mdtNa2typbCNmqZtJ4lb7NN5ig8xv1H0NY2nSzSqGsNQjvFxzG37uUfh0NXoNWeKYpMrJJ0KsMN/8AXrRzi9WrDpxlb3XfyZKuoyQDY24c8q/UfStC1uoZ0IVgWxnB61Gi217y4V/r2qpe6RJbgyWR8zHPluef+AmqTnHVaoUnTlo9GXJS8RLx/wA6fb6vghJODWVZ6xvYxS5Eg4KOMMP8aluUjkQyI3PoKftmtYsfsU9Jr5nf+FfHd94fYCF/tNmTl7d24H+6f4T+lew6D4j0/wAR2n2ixmDFceZE3Dxn0Ir5Th1Ca3kyTgV0mh+JZ7K5ju7K5a2uU6Op4PsR3Hsa6sPj+jPms64Xp4lOpT0n37+v+f5n03RXG+DfiPZ+ISllehbTUMcDPyTf7p7H2P4Zrsq9aE1NXifmeLwlXC1HSrRs/wCtgoooqjmCiiigAooooAKKKKACiiigAooooAKKKKACiiigAooooAKKKKACiiigAooooAKKKKAPjXTr+HU4fMhYbsfMhrA1bTrrw/fjWNPVjDnMiD+H1/CsbT7y4snV4ZCpH5fjXZaX4nt7sCK+jEbMMFhyp+or5S3K9dj9whiIYqCT0kvz/robeiatBrVulzaMpY/6yIHkH6VpTC1lXbcW/wCJUr+pFcBrnhaSyb+0tClAB+Yxo3H4VXsPiJqumNtniLFePmdv5ZreMum5M6/s3ar7r762fz/Q7dtFtC3mW87QsORkcfmK0bZJCnlXF1BMoHcg1zGm+OtB1NidRYadIf4k3YJ+grXkvNGdd0GtQMvYswwfpRFKPvJfjb8DZV41Vy81/wAfxRoLp9s8jC3n2eYpRwhyCCP0rPuvC2oyk+bcGYZ4LOTj86sRXUdspc3Vk4GMYuV/PritSHWV8sAtaOTjaBcjn8cVXLSmrS0FKdaGsNTmH8NXKk+Z8qjoQ3FA0hohjaBjv1zXTS6naf8ALV7VSc5AkZyPyGP1rN1DxNptohEe1W7O5x+QrOVCkvtGsMTVe8TL+xCJhuU7uwqZAluvABNY1z4phd2MKksTku3f6VSfX5Jf9Up3Z9M1z6J6G/t4vRs6N75k7AD3qtNqYRTlwPpWCbm4mO55Dz2WpobR3AIQnPc0nJlRaeyLjaqXOFUsfWoWnnmOS2PpU8enPxkYq2liMYOKmzZrZ9WUI7ctyTk+/NWo7bj5jVtbeJByygU4LF6k/SmoPqO66EC26dufwqVLf5eBkelPeeGFeuKqXGu29vwCDj3qlFGc6nKtdCz9jQ5ynFI1jD/Fj8awrrxXwQgGP5VkXHiO6myEZj6dqtQ8jjqY+lHd3OtlWzjyGdRisy41TSrZSGcM3pmubSPUtTbYC5+la+n+BXn/AH15JsXPIb/GqVNLc5/rtar/AAoad2VLjxNbyfLaWjysTgAirVtpevalIpEMdrFjnjJFdJaWOk6Muy2gDt1LNzTptTnlXamI19F4ocox2NIYSrU1qy+7T/g/kZdv4QtoVY6leyzuT/q1bH6VtW50zTIwtvaxRY44Ubj9az8u3IJFN8tiSR1Pqah1WddPCQgvdRen1mQEmONEHqwyapyz3Vyu2SWVl+uBQI0XJPJpxdRjPWs3Ns3VJIrpGmSS6g0SwRSL80q/nSy3dog+fbn9ayrvWrVM7QMj1NVGLexhWq04L32i3NBHAnE5A7c5qr9s8ojEx477ayZ/EEbDKIW7cAmqU2q3DgBbRst/eGK3jTl1PHrY6itYfgdlbeJJogAZEkx3GQa1IfE0MqYuIAeOoIrzLz9d3BodNcxtwP3Zx+dWIdU1lWKnSlmRQCfKmU4/WtPZSWzX3mcM1j9uMv8AwF/oj1K0MF0nm27yRc4welWH86PG9Q4/vL1rg9L8b/2cRbyw3EK9dsiZX8xkV1Nn4usbkDewA9Qam1vi0PSp4iFXWEk/z/zL7Q29yNr9+x4NZF14ekicy2U7RnuobFbYEN5H5kDq4PdTUTedD/tKOxqZR7m61OUmtFkk23Km1uR92dBgN/vAfzol1m+04rbanCt1F/Czc/iG7Vv3UcV2pVkx/SqE0P7o21yoltzwGx8yVknYc6b3i7Msabdx3X7zTbgO+Mm3lOG/D1rYttTWU+VODDIOzV57qGk3GlzB4nbAO5HTitKw8VFtttq8YlTp5wGHX3PrWkG4/Cc7rpvlrKz7nS6toX9o/vopPLuF+646H2PtWFb61LZzmz1KMwzKcZ7H3BrUzd20Qn0+cXMGMgZ5qCe/03WF8jVLYxSjo46ik2m+zNmpR1i/6/r5ks4S7jLIVJPcd6yDdTWcu0gjB71di0S4siX0+7Fzbnpj76/Ud6qX2oiPMd9aZHTzI+g98HkVNtSpVXy3eljY03Xd+Fc8D35Few+BfiuYgljrkxlg4Ed31aP2f1Hv19c185C7ie4ItWLKOu08/lWpp2tMr7Ukzjsa6qNWdN3ieRjsNhsfT9lXXo1+h9pRSxzxJLE6yRuAyupyGHqDT6+ePAPxSuPD0i28j+fZMfngZvu+6HsfbvXvGja5p/iCzW70+4WaM9QD8yH0YdjXs0MRGqtNz8yzbJa2Al72sHs/8+zL9FFFdB44UUUUAFFFFABRRRQAUUUUAFFFFABRRRQAUUUUAFFFFABRRRQAUUUUAFFFFAHxnrHhS3uJHuLVQm/5mC9j6j2rm7jSLiyPzDKjuK6fQNdDoIZmLL0Vu49jWtfael/FhG2OehHRq+YlF9Nz9zhCjUXMl8/8zlNHm2HYZCFb+E9KTVvDa3hM8GzPcHvUt54dvLZ856c4pba3mQjfI6e4auXWLOxQVSHs5q6OSudHKHAjeKT0PKn8aqnT7iM4KfkeK7i6sEnJLuXJ9WrKuNFVWwtztPoT0raNd9TycRlSTvFGJHps5GGkCD61ZjjezG4XQwvoaiu4Y7Nv312GP90Hk0Q6Zc3pRiq20DdHlbkj2HWtNXq3ociioPljH3vUtzeIJpEEasSOmc1DF9ou24Ut6Fq0bPTdMtC/37pwQQSpwK1EuQijZCkQHQMOazdlsjuhSnPWrP7jNtNFmfBdScdewrWt9JjiUGRlUeg4qB9QZiS9wVXptSo/tcePlRmHqx61Fm9zthKlT2RrIbO3IUbc+wzT/tu4EwwOQO+AP51kLcyE/IFUeop4uWHLSZ9yaOU1WITNdZpTgyFQPReTQZ/Ubfr3rGa/I+6xYntUMt1KAS7Y7AE5NPlYni4xWhtveRxkjaufU1Sute8vhSAaxpbiWTIyT7nioVt3kbGCxPrVqn3OOrj5vSCJbnWZ5ydhIHtVLZLK3IJJ9a17XRZpgBwvttrfsfDsUIDzHp/eq00tEc31erWfNNnK2mhXF2w+U4PU44FdHp/g6GMB5/mHXJ4rX+021mCsKgn+92qlPeyz9WJFQ5pHbSwEI62+8t7rOwQCFFdh3xgVWmvprhsEkj0HSqp5OWOaVp1RcZA+nSsnJs7kox3HiMZyxyaUgZzis641u0tch5hu7Ack1nzeIZHUtb28hH95hwaapyZjPG0YaX18joGkUDk8VVudShgXJcVlw6frOpASyyeRE4/HH0qJ9E8yZbe3D3Emfmkf7q1Spx6sxnjKzjeELev+RJc+I41JEY3dgfU1HjV75S5Uwxjnc/FdFpfhi109RJOqTz9dzDhfoKsXkdvKcXMv7vrsU9avRbIyjRq1FerL5I5W10G51ItI0zrApxvPVz7CnnQ9N06USXUZuZcZEDHhf971+lbt7rSJGsdoiqAMDP8AD9K52ZQzM8jlieSSapczMJ06NNaK7NJNbtoIzHHpsMYxgBFGKqT+IroqBEIYQvOFjBrLnmSPnsOnNZ0l3JO/l2yFj7fzNXGkmzkrZhOMd7FzUdSnumJurl2LfwlsDH0rBuZDPlIVCJ0Lf4VoDTJXUvPPtbv3A/Gi30ea8uFgtka4duiqMZ9/YV1RSgjwa8qmJlZatmJDAkZbZEzZPLl8VsaNoWrajMv2NpIYc/NI2SPy4zXbaH4Bhttk+psPMHIhHIH1rrIRb2ibLeAKtROvfY9PBZElaVVteS0/E5HTPCGt2rhotZYEnoYuCPf5q2Ej8VWcjBn0u9jVujSmNiPy4P51sGZ26nA9BxTGdVGa5+Zbs9+OGUVaF182/wA7kQcTkLcWskEmM5BEi/8AfS8fng02W2LLgFWHvVO91lrZsRgbvWqi+J7husC5+prJuLOhNwVmy5HGoLwTr8o5Xd0/PtWHrFg6naNPkAHR15FbS60lwuJrfJ9MAirkMsZTEcCIvoFpKwqlP2kbHEaZrdxolx8u7yifmQ11kL6d4ig3wlBJ/Eh7GtObRtMvLcnULK3wRwQCG/PNYQ0HT7WfzbATwsOjCQ/14rSaSWpzYenVjJxi7xGTWN/pjb7ZnYL/AAg/N+HrT7bxBZalmDU4Fdh8rPjDr9RWrbXjFAlx+8HTeFqtqfhaDWF8yJJEmH3JUUhh/iPY1EFfY3rRlFaf18+hl6j4I80C70a5EuORGeGH0NZ66jJasbfV7JgRxu27W/8Ar/nV210fxlpN2sENp9rQ8iWNlQY/2gTwa6SKLUr+P7NrGgyyAcGRdjD9DW7g7ao82HK5Nw919nt/l9xhWi2U43Ws+G7ByePz5rpvDviLW/DV4lxZyuhXrtOQw9CO4qovhFLNy1qrtE3WCQdPoe1SxaZJCWRDLF6LKCQKm04u6Orkp1YONRKz3XT7j3bwt8WdH1lUg1B1sLroS5/dOfY9vofzNdwkiSoHjdXU9CpyDXyvAlxGwSWGNgRyyP8A0Nadlql9abVtLjULdRyfKn8sH8Aa9CljpWtNXPkMdwhRnLmw0+Vdnqv8/wAz6XorwFfG3icxiM6lelFGBmZdx/HGf1prfFPxZZDJa5eNRgZCMT9crW7x8FumeU+D8W/hnF/P/gH0BRXiuj/G++lliiukhJH3g8e1mGfUHGfwr2eKRZokkX7rqGH0NdFGvCqrwPEzHKcRgGlXW+w+iiitjzQooooAKKKKACiiigAooooAKKKKACiiigAooooAKKKKAPghpDBKZIWww+8vrXT6D4mDKsE7e3Nc7dwqJhKDhZOh9DVYqY5Vz8jdiOhrwpRUvU/V6Neph3zLWPVHqyzRzRfvSrxY+9jJH5Vyup+IfD1uvmW96kx6FRwQfTFU9G8RS2ZEcxLxdD6r9aj8V+F11GN9Y0YBpj880CgfvP8AaA/vfzrFw5vdnueo8XL2ftcNr3X/AAP6uZuo+JbW9x9mtrsOP4jhVI96ynkubtSLi4WBPROWx9azo5WZsszcfpV23SSTohb6ij2SjseXPGVK799/oXbVtPs2DRxb5Mf6xjuarX9prnKoCfpk1UW2/wCem0HsKsRxBRlcj69alpG9OU1pHREy3N7N8qDYPpSiGVj87Mx75pognbpu+tTpYSdXlOPzqGdMeZ73YiRYx8pNP8uQg4jyfepU05QvMrnJqVbBP7zfrUs3jCXYr+RKT8zAfjS7FQH5TI3oKvLZpgcEmrUVmey4pXNo0GzFMd3LgJEEGMcGnppVy5OSv1610cdmAeVp7NBAAXzj2o5zRYNP4ncx7bw+zMC75HsK1IdJgt1+cgkUSamiqVjTHvVOS+BOWJJpORrGlTht/maRvYYPlhRcjuarS3Ukx5YnNY93rdlY4+0TxxljwCeTWdP4rMm5bO0uJiB8rbdqn8+aFCcjOeNoUnZvX72dISF5cjI9apXes2lmMvIo+h5rCjttd1gK8sgtYz94JwxrQ03wKkkhmunZ1PYnn8TVqnFbv7jneMr1f4NOy7vT8NylJ4lmu5/KsYfMPbIP8quWnhbV9UXdqF21vETnaOSa3VGnaNGILOJHm9cdKuwLLIfOnYsxHA7CnzpaRQRwUp615X8tl/XqU4/Dul2QVYbcFh1duSani0yJ5llkRVRPuIBxn1q08iR5LsBjtVSXV4IwQMkj2qG7u7OxQhCNkkkWZ4lcc8LVN7uCyUpDjJ5yOprOu9YeXKjCr6Csi51OKHqwZv7oqlBs56uNhDbU2p9VlYfKcZ7k1mXF/gnJywrFutYaQkKSF9KqeZcXHCJtB7mtoUjycRmN+prXOpRxk8rn1FZsmoTXBPkqZMdwOKF08Aq0rM7f3Mdf/rVq2GkXN/IFjhyuf9WvA+rGtuRLc814ipUfLTMZbG4uWVpDtQn5iD+g9a1bKxbAgtoXc/3UGST7ntXVWPhSNFV7uXce8cfIx6ZrbjW2so9sKJAnogqXVS2O2hlM5vmqv/P+vvObsvBBaQS6nMNmPlgiP866S3t7awQLbRJAAMZUfMfqahl1ONCQCD75qA36vngisJVLnt0MJTpK0VYtyTxrnBzVeS9RRnIqCS4B/gyPas+YxuSMYrJybOt2SLz6vGvOc/0qtNqySA7SCKrRWf2iQJFFLI3ZUXJ/Ktyw8DzXEitdM0KnrGozIPr2FOFOU9IoxlX5Fd2Rg7UmYE8e+a0rTRjORsids85xgV1th4SsrLC+WpOcmST52/wFa6Wir03MOwIFdcMDJ/EzknmEFsrnJW3hp1G59qH061o2+meWQI4y7etdFJFFbx+ZdSJEnZe7f41nXesNt2WqeUvQscbj/hXR9Wp09zFYurV0itPwK8ml28YEl2wVvSTkfgM1En2CI7UeIf7qiqr89Sc+ppqx5Prms3JX92JuoO3vSNmFLcYVJEXPYHAq2liR6EfWueMWe1S281xbH923H901tGolujCdBv4ZHQCzHpTmijTpHk4rMg10rhZ4mA9RzWlb6lBLyhxnvXRGUJbHDUp1YbockWVDSIoz0GOlP8iBv4AKczBlyMEeoqIkqa0skZasil0yF25II9CKrSaTyfLZSD/d4/SrrvuOKgkBJyrEH3rKVOD6G0JzXUzZraeA7gCV6ZHP/wBcVD9rI/iBHT2rTfzu5OezDr/9eoJIEk5nG1unnIMY+v8AhyK550f5TrhUT+IzpbG3vXEgwjj0r6R0K4W70WwnRw6yW8bbh3+UV87TWfkn5mCY6SL90/Udvw4r2n4X3ck/hWKCUYe1kaLOc5H3gfyb9KvBrlm4tbnzPF1P2mGhUTvyv8/+GR11FFFemfnwUUUUAFFFFABRRRQAUUUUAFFFFABRRRQAUUUUAFFFFAHwioDoYX6HoT2NCQC5jaCU4ZeKaTzjv70pkKssin516+4r59p28z9dTinfo9ymTJay+XKduOFf1HvWvpt5NZyB4+V7rng+4qVoYNRtfujOPyrICzWEpUklOxFCmpq0iJ4eeHmqlJ6HXCHTNZO94IxP1LgbXJ9z3/GlHhW0mOEk2v8A3H71z9negyBkcK47g/0robLVVl2x3AwT0cHispRcdd0enh69KtpNJS/MafCHk5KGM56jZ/U0z/hH5YxhFTA6gCtee+uYbcmBhNgcDoT+Nc7N48NvI8cqlGU4ZZCAy/hUtp7XOiUadJe/ZFn+ynXr+vak/s8r6Vk3Pjq1YFvNQjpy2Tms+bxvFjicsOuETmo5aj2REsZgobzR1QszkbmGKf5UEGBJKoP+0a4aTxYsrYCXEnuTj+dQP4ivJQdsIX0LsTgVSoVH0MZZzg4bO53/ANuso87ZAxHoKgm15Ix+7Cr3+Y157Nqd7IoD3O0ewAqOFbi+k2RCe4f2q1hn9pnNLPlJ2pQudpdeJkyczj/dU1my+Jk6xKzde1VLTwhqdzGJGRIMn7r8tite18DQRtvu7lnHoTgUuSlHd3KVXMa3wx5V5mLL4kuJH2xRqSeAGO45+gpDa67fMImLxh+yjbXb2Om6VpURjg8pATkluSaf/a1jAzbfmPqRS9pFfCjX+z6kl/tFV+i0RkaJ4IhtgLm/USzqcjJyBWo2ki6uCwG1F6tjAplx4mUjbFDuPq3SqFzrU0/35Ag/ug4FJ80ndnRF4ahD2cEjZ+02Nkg2Ylf/AGelUri7utQPl52x5+6vH51jnU4V/j3ewGaqT6/5WQGCH0JpcjIljodXodVbRWtj+8kkUPimXfiCOMERkAdmJxXDy648mQrO3PYYqAzXMpyq7Qe5NXGi+pzVM3SVoI6a611WJJLMR36Csq51pn4yB9KypCqk+dcZI6KvJp8KSSsfIhCJ2dhk/Udq3jRseVXzOU3uOmvpH7kAnGaYkM1wA2SqHuep+gq2lklqnmSOFPd3NbOm6BqGqMBBCY4yM+dNwPwHWtLRjucsfb13aKMeC0jjwTgf7TdTW3peg3moOpSJo4TyXI5x7D/Gup0vwxY6aySupuZ1HLt90f59qvzXcFuvzOgHXavArKVS22h6+GyhfFWd/Jf1/XczrXw3Z2OD5KzyHkvL8xz/ACqS6uL23UCFYlQfw47VBc68TlYQB71Whmvb1l3sSg5PrXPKV9T2KcacFyQX3BJqt6SclVX+7jiqrm6uX53gHnAPFawtN3RePpU6WmB0qbl+yl1kZUFg4GXYk1YFttGN9alvplxdZMETOBwW6KPxNa1t4dtY499wxncjOzGEH65NaQozqbIJ1KNJWb1OWitHuJBHFvkcnAVBk1tWvhALhr6RkOQPKjIZiO+SOBU66pNbSm1jUxovy/LwMVuafsaIMp3Gt8PQpydnqznxNecVdKwy302C3BEUEdsjY3LGOT9T3q+AqrsRQq+3enrAzKXfaka8s7HAH41Qi8SabPkac32shipkxhBj09a9H3YaPQ8ludR6amikAVTJIQiLySe1Zd74ptLa5W0tf3jsv+uP3AfT3qvfXdxc5E0hZey9B+VYV/aecpJXpzkVhWxEor3Drw2DjJ3qv/ItXstzdyeZPI0rDue30qtHfvCdkwJX+93H1qOzu3YeWzfOvY96lmVZBx1NcTk370WeqoKPuNaE32hTg8EHuKljkVuBxWOyy27HAJHpU0N8FwTyP5Uo1ddRyo6aG2uO9SbQR0yaoQX0b4O6rYnBHBz712QnFo4pwkmEsRxwfzqqxkhctG2096smbPXFRMEcc1M7PYqDa3J7TXvJbbKpHqV6flWxDfQXaZVhg9CK5S4tWX5kYEVXR5Ym8yCRo3HXHf6jvUxxU4O0lcJ4KnU96LsztZFZRnt61AXK8/oO9ZOn+JC+Ibnaj9AT91v8DWrvWTlflPcGuuFSM1eLOCdGdJ2mhROcfMMDstMZieQBio2Q8nnJphkaMinzdxqC6Em5uQgAB6r2P+FbfgzxdN4T1B1MTS2E+PNhB5U/3k7euRWELhZMgcGoujVDeqaJrYaFenKlVV0z6K0/ULXVbOO8sp1mglGVdf5H0PqDyKs18+6RrupaDcC6025aJs/PExJil9mX+vX3r2Twn4vsfFdmZICIbuIAXFqzfPEfX3U9m7/XIrrp11J2e5+d5tkVXBfvIe9Dv1Xr/n+RvUUUVueEFFFFABRRRQAUUUUAFFFFABRRRQAUUUUAFFFFAH//2Q==;shadow=1;" vertex="1" parent="1">
          <mxGeometry x="50" y="50" width="693.77" height="460" as="geometry" />
        </mxCell>
        <mxCell id="WBKjV2jkg9K49L9n9aMM-7" value="&lt;font style=&quot;font-size: 18px;&quot;&gt;Rt.xit&lt;/font&gt;" style="rounded=1;whiteSpace=wrap;html=1;glass=1;fillColor=#dae8fc;strokeColor=#6c8ebf;shadow=1;" vertex="1" parent="1">
          <mxGeometry x="550" y="330" width="130" height="40" as="geometry" />
        </mxCell>
      </root>
    </mxGraphModel>
  </diagram>
</mxfile>
